<?xml version="1.0" encoding="utf-8"?>
<!-- Generator: Adobe Illustrator 16.0.0, SVG Export Plug-In . SVG Version: 6.00 Build 0)  -->
<!DOCTYPE svg PUBLIC "-//W3C//DTD SVG 1.1//EN" "http://www.w3.org/Graphics/SVG/1.1/DTD/svg11.dtd">
<svg version="1.1" id="Layer_1" xmlns="http://www.w3.org/2000/svg" xmlns:xlink="http://www.w3.org/1999/xlink" x="0px" y="0px"
	 width="27px" height="56px" viewBox="0 0 27 56" enable-background="new 0 0 27 56" xml:space="preserve">
<circle fill="#212121" cx="13.5" cy="13.5" r="13.5"/>
<g>
	<g>
		<rect x="6.984" y="6.938" fill="#FFFFFF" width="1.031" height="0.984"/>
		<rect x="7.984" y="7.938" fill="#FFFFFF" width="1.031" height="0.984"/>
		<rect x="8.984" y="8.938" fill="#FFFFFF" width="1.031" height="0.984"/>
		<rect x="9.984" y="9.938" fill="#FFFFFF" width="1.031" height="0.984"/>
		<rect x="10.984" y="10.938" fill="#FFFFFF" width="1.031" height="0.984"/>
		<rect x="11.984" y="11.938" fill="#FFFFFF" width="1.031" height="0.984"/>
		<rect x="12.984" y="12.938" fill="#FFFFFF" width="1.031" height="0.984"/>
		<rect x="13.984" y="13.938" fill="#FFFFFF" width="1.031" height="0.984"/>
		<rect x="14.984" y="14.938" fill="#FFFFFF" width="1.031" height="0.984"/>
		<rect x="15.984" y="15.938" fill="#FFFFFF" width="1.031" height="0.984"/>
		<rect x="16.984" y="16.938" fill="#FFFFFF" width="1.031" height="0.984"/>
		<rect x="17.984" y="17.938" fill="#FFFFFF" width="1.031" height="0.984"/>
		<rect x="18.984" y="18.938" fill="#FFFFFF" width="1.031" height="0.984"/>
	</g>
	<g>
		<rect x="18.984" y="6.938" fill="#FFFFFF" width="1.031" height="0.984"/>
		<rect x="17.984" y="7.938" fill="#FFFFFF" width="1.031" height="0.984"/>
		<rect x="16.984" y="8.938" fill="#FFFFFF" width="1.031" height="0.984"/>
		<rect x="15.984" y="9.938" fill="#FFFFFF" width="1.031" height="0.984"/>
		<rect x="14.984" y="10.938" fill="#FFFFFF" width="1.031" height="0.984"/>
		<rect x="13.984" y="11.938" fill="#FFFFFF" width="1.031" height="0.984"/>
		<rect x="12.984" y="12.938" fill="#FFFFFF" width="1.031" height="0.984"/>
		<rect x="11.984" y="13.938" fill="#FFFFFF" width="1.031" height="0.984"/>
		<rect x="10.984" y="14.938" fill="#FFFFFF" width="1.031" height="0.984"/>
		<rect x="9.984" y="15.938" fill="#FFFFFF" width="1.031" height="0.984"/>
		<rect x="8.984" y="16.938" fill="#FFFFFF" width="1.031" height="0.984"/>
		<rect x="7.984" y="17.938" fill="#FFFFFF" width="1.031" height="0.984"/>
		<rect x="6.984" y="18.938" fill="#FFFFFF" width="1.031" height="0.984"/>
	</g>
</g>
<circle fill="#FFFFFF" cx="13.5" cy="42.5" r="13.5"/>
<g>
	<g>
		<rect x="6.984" y="35.938" fill="#212121" width="1.031" height="0.984"/>
		<rect x="7.984" y="36.938" fill="#212121" width="1.031" height="0.984"/>
		<rect x="8.984" y="37.938" fill="#212121" width="1.031" height="0.984"/>
		<rect x="9.984" y="38.938" fill="#212121" width="1.031" height="0.984"/>
		<rect x="10.984" y="39.938" fill="#212121" width="1.031" height="0.984"/>
		<rect x="11.984" y="40.938" fill="#212121" width="1.031" height="0.984"/>
		<rect x="12.984" y="41.938" fill="#212121" width="1.031" height="0.984"/>
		<rect x="13.984" y="42.938" fill="#212121" width="1.031" height="0.984"/>
		<rect x="14.984" y="43.938" fill="#212121" width="1.031" height="0.984"/>
		<rect x="15.984" y="44.938" fill="#212121" width="1.031" height="0.984"/>
		<rect x="16.984" y="45.938" fill="#212121" width="1.031" height="0.984"/>
		<rect x="17.984" y="46.938" fill="#212121" width="1.031" height="0.984"/>
		<rect x="18.984" y="47.938" fill="#212121" width="1.031" height="0.984"/>
	</g>
	<g>
		<rect x="18.984" y="35.938" fill="#212121" width="1.031" height="0.984"/>
		<rect x="17.984" y="36.938" fill="#212121" width="1.031" height="0.984"/>
		<rect x="16.984" y="37.938" fill="#212121" width="1.031" height="0.984"/>
		<rect x="15.984" y="38.938" fill="#212121" width="1.031" height="0.984"/>
		<rect x="14.984" y="39.938" fill="#212121" width="1.031" height="0.984"/>
		<rect x="13.984" y="40.938" fill="#212121" width="1.031" height="0.984"/>
		<rect x="12.984" y="41.938" fill="#212121" width="1.031" height="0.984"/>
		<rect x="11.984" y="42.938" fill="#212121" width="1.031" height="0.984"/>
		<rect x="10.984" y="43.938" fill="#212121" width="1.031" height="0.984"/>
		<rect x="9.984" y="44.938" fill="#212121" width="1.031" height="0.984"/>
		<rect x="8.984" y="45.938" fill="#212121" width="1.031" height="0.984"/>
		<rect x="7.984" y="46.938" fill="#212121" width="1.031" height="0.984"/>
		<rect x="6.984" y="47.938" fill="#212121" width="1.031" height="0.984"/>
	</g>
</g>
</svg>
