<?xml version="1.0" encoding="utf-8"?>
<!-- Generator: Adobe Illustrator 16.0.0, SVG Export Plug-In . SVG Version: 6.00 Build 0)  -->
<!DOCTYPE svg PUBLIC "-//W3C//DTD SVG 1.1//EN" "http://www.w3.org/Graphics/SVG/1.1/DTD/svg11.dtd">
<svg version="1.1" id="Layer_1" xmlns="http://www.w3.org/2000/svg" xmlns:xlink="http://www.w3.org/1999/xlink" x="0px" y="0px"
	 width="112.949px" height="36.312px" viewBox="0 0 112.949 36.312" enable-background="new 0 0 112.949 36.312"
	 xml:space="preserve">
<g>
	<path fill="#212121" d="M10.582,0L0,18.057h9.391L4.034,32.806l12.764-19.049H6.216L10.582,0z"/>
	<g enable-background="new    ">
		<path d="M23.459,26.424V6.37h12.924v1.615h-11.03v7.242H35.38v1.615H25.354v9.581H23.459z"/>
		<path d="M40.115,26.424V6.37h1.894v18.438h10.751v1.615H40.115z"/>
		<path d="M54.738,26.424L62.621,6.37h2.145l7.687,20.054h-1.95l-2.311-6.295h-9.136l-2.367,6.295H54.738z M59.696,18.514h7.855
			L63.623,7.985L59.696,18.514z"/>
		<path d="M76.908,20.436c0.074,0.892,0.273,1.648,0.6,2.27c0.324,0.623,0.742,1.129,1.253,1.519s1.101,0.673,1.769,0.85
			s1.383,0.265,2.145,0.265c0.892,0,1.662-0.111,2.312-0.335c0.648-0.223,1.178-0.524,1.587-0.905
			c0.408-0.38,0.71-0.821,0.905-1.322c0.195-0.502,0.293-1.031,0.293-1.588c0-0.78-0.178-1.411-0.529-1.894
			c-0.354-0.483-0.812-0.878-1.379-1.185c-0.566-0.306-1.217-0.552-1.949-0.737c-0.734-0.186-1.486-0.367-2.257-0.544
			c-0.771-0.176-1.522-0.385-2.256-0.626s-1.384-0.566-1.95-0.975s-1.025-0.934-1.379-1.574c-0.353-0.641-0.528-1.452-0.528-2.437
			c0-0.688,0.144-1.355,0.432-2.006c0.288-0.649,0.714-1.226,1.281-1.727c0.565-0.502,1.276-0.9,2.13-1.198
			c0.854-0.297,1.839-0.445,2.953-0.445c1.133,0,2.121,0.158,2.967,0.474c0.844,0.315,1.545,0.747,2.102,1.295
			c0.558,0.548,0.976,1.184,1.254,1.908c0.279,0.724,0.418,1.494,0.418,2.312H87.27c0-0.761-0.135-1.421-0.404-1.978
			s-0.636-1.012-1.1-1.365c-0.465-0.353-0.994-0.612-1.588-0.779s-1.207-0.251-1.838-0.251c-0.966,0-1.778,0.135-2.438,0.404
			s-1.184,0.617-1.573,1.044c-0.39,0.428-0.659,0.901-0.808,1.421s-0.177,1.04-0.084,1.56c0.111,0.65,0.371,1.17,0.78,1.56
			c0.408,0.39,0.909,0.71,1.504,0.961c0.594,0.251,1.249,0.455,1.964,0.613c0.715,0.157,1.443,0.325,2.186,0.501
			c0.743,0.177,1.463,0.386,2.159,0.627s1.313,0.566,1.853,0.975c0.538,0.408,0.97,0.933,1.295,1.573
			c0.324,0.641,0.487,1.444,0.487,2.409c0,1.857-0.641,3.297-1.922,4.317c-1.281,1.021-3.083,1.532-5.403,1.532
			c-1.04,0-2.006-0.135-2.896-0.404c-0.892-0.269-1.662-0.678-2.312-1.226c-0.65-0.547-1.155-1.226-1.518-2.033
			c-0.361-0.808-0.543-1.759-0.543-2.854H76.908z"/>
		<path d="M94.094,26.424V6.37h1.894v8.606h11.865V6.37h1.894v20.054h-1.894v-9.832H95.987v9.832H94.094z"/>
	</g>
</g>
</svg>
