<?xml version="1.0" encoding="utf-8"?>
<!-- Generator: Adobe Illustrator 16.0.0, SVG Export Plug-In . SVG Version: 6.00 Build 0)  -->
<!DOCTYPE svg PUBLIC "-//W3C//DTD SVG 1.1//EN" "http://www.w3.org/Graphics/SVG/1.1/DTD/svg11.dtd">
<svg version="1.1" id="Layer_1" xmlns="http://www.w3.org/2000/svg" xmlns:xlink="http://www.w3.org/1999/xlink" x="0px" y="0px"
	 width="33.068px" height="24.469px" viewBox="0 0 33.068 24.469" enable-background="new 0 0 33.068 24.469" xml:space="preserve">
<path fill="#333333" d="M33.068,8.532c-1.167,0.193-2.375,0.216-3.592,0.051c1.394-0.411,2.615-1.314,3.403-2.566
	c-1.302,0.377-2.678,0.54-4.074,0.458c-0.771-1.411-2.106-2.514-3.784-2.949c-3.227-0.835-6.52,1.102-7.354,4.327
	c-0.119,0.458-0.182,0.916-0.192,1.37C12.685,7.721,8.983,4.28,7.018,0C6.294,0.732,5.746,1.661,5.468,2.731
	C4.942,4.757,5.51,6.812,6.806,8.265C5.857,7.987,5.023,7.491,4.35,6.849c-0.006,0.024-0.014,0.049-0.02,0.075
	c-0.732,2.828,0.668,5.709,3.2,6.94c-0.524,0.008-1.06-0.058-1.593-0.193c-0.375-0.098-0.731-0.229-1.07-0.391
	c0.142,2.512,1.86,4.76,4.403,5.469c-2.403,1.051-5.164,1.332-7.899,0.621c-0.471-0.123-0.93-0.269-1.372-0.44
	c2.155,2.323,4.975,4.086,8.272,4.94c10.741,2.783,18.921-4.594,20.92-12.311c0.065-0.252,0.126-0.506,0.179-0.76
	C30.725,10.272,31.982,9.501,33.068,8.532z"/>
</svg>
