<?xml version="1.0" encoding="utf-8"?>
<!-- Generator: Adobe Illustrator 16.0.0, SVG Export Plug-In . SVG Version: 6.00 Build 0)  -->
<!DOCTYPE svg PUBLIC "-//W3C//DTD SVG 1.1//EN" "http://www.w3.org/Graphics/SVG/1.1/DTD/svg11.dtd">
<svg version="1.1" id="Layer_1" xmlns="http://www.w3.org/2000/svg" xmlns:xlink="http://www.w3.org/1999/xlink" x="0px" y="0px"
	 width="172.775px" height="151.017px" viewBox="0 0 172.775 151.017" enable-background="new 0 0 172.775 151.017"
	 xml:space="preserve">
<g display="none">
	<g display="inline">
		<path fill-rule="evenodd" clip-rule="evenodd" fill="#333333" d="M157.624,14.902c-19.601-19.396-50.931-19.801-71.238-1.554
			C66.083-4.898,34.758-4.493,15.152,14.902c-20.203,19.979-20.203,52.37,0,72.355c5.774,5.71,59.685,59.023,59.685,59.023
			c6.386,6.315,16.717,6.315,23.103,0c0,0,59.03-58.376,59.685-59.023C177.826,67.272,177.826,34.882,157.624,14.902z M149.92,79.64
			l-59.686,59.023c-2.119,2.102-5.579,2.102-7.693,0L22.856,79.64c-15.931-15.75-15.931-41.376,0-57.126
			C38.213,7.328,62.903,6.795,79.066,21.318l7.32,6.579l7.324-6.579c16.163-14.523,40.859-13.991,56.21,1.195
			C165.851,38.264,165.851,63.891,149.92,79.64z M49.946,26.965c-0.01,0-0.01,0.005-0.021,0.005
			C37.264,26.981,26.996,37.237,26.996,49.89c0,1.49,1.208,2.697,2.7,2.697c1.493,0,2.7-1.207,2.7-2.697v-0.005
			c0-9.677,7.857-17.525,17.544-17.525h0.005c1.493,0,2.7-1.206,2.7-2.697S51.438,26.965,49.946,26.965z"/>
	</g>
</g>
<path display="none" fill="#333333" d="M157.542,132.393c-0.942-0.625-18.119-11.893-43.666-17.416
	c9.372-11.879,15.388-27.846,17.945-38.475c3.545-14.729,2.17-43.551-11.977-61.51c-8.269-10.495-19.84-16.041-33.457-16.041
	S61.2,4.498,52.931,14.993c-14.146,17.958-15.521,46.78-11.976,61.51c2.557,10.629,8.573,26.596,17.945,38.475
	c-25.547,5.523-42.724,16.791-43.667,17.416c-3.454,2.305-4.994,6.596-3.79,10.564c1.201,3.974,4.866,6.692,9.014,6.692h131.86
	c4.149,0,7.814-2.719,9.015-6.692C162.536,138.989,160.996,134.698,157.542,132.393z M106.48,109.141l-1.54,1.956
	c-11.231,12.898-25.875,12.898-37.105,0l-1.541-1.956c-13.116-16.62-19.624-38.598-16.823-59.57
	C52.042,29.419,63.591,8.37,86.388,8.37s34.345,21.049,36.916,41.201C126.09,70.552,119.605,92.517,106.48,109.141z M20.458,140.23
	c0.648-0.433,16.607-10.895,40.434-16.045l11.7-2.534c4.171,2.745,8.757,4.452,13.797,4.452s9.625-1.707,13.797-4.452l11.7,2.534
	c23.643,5.108,39.541,15.456,40.433,16.045H20.458z"/>
<path fill-rule="evenodd" clip-rule="evenodd" fill="none" d="M139.63,55.028C137.285,30.638,116.978,11.5,91.978,11.5
	c-19.347,0-35.911,11.485-43.549,27.96c-2.297-0.73-4.694-1.231-7.23-1.231c-13.286,0-24.056,10.774-24.056,24.055
	c0,2.642,0.527,5.137,1.315,7.507C8.127,75.816,1.105,86.878,1.105,99.7c0,19.189,15.557,34.747,34.747,34.747v0.006h96.218v-0.006
	c22.145,0,40.087-17.949,40.087-40.094C172.157,74.803,158.151,58.567,139.63,55.028z M132.07,123.755v0.005H35.852
	c-13.265-0.005-24.055-10.795-24.055-24.061c0-8.552,4.505-16.278,12.048-20.673c7.33-4.213,7.831-5.048,4.756-12.608
	c-0.517-1.556-0.768-2.908-0.768-4.135c0-7.371,5.993-13.364,13.364-13.364c0,0,3.508-0.25,7.23,1.232
	c6.134,2.443,6.802,0.104,9.699-6.197c6.129-13.218,19.415-21.764,33.85-21.764c19.242,0,35.155,14.555,37.007,33.86
	c0.663,7.653,0.663,7.653,8.641,9.48c13.818,2.636,23.846,14.764,23.846,28.822C161.471,110.568,148.285,123.755,132.07,123.755z"/>
</svg>
