<?xml version="1.0" encoding="utf-8"?>
<!-- Generator: Adobe Illustrator 16.0.0, SVG Export Plug-In . SVG Version: 6.00 Build 0)  -->
<!DOCTYPE svg PUBLIC "-//W3C//DTD SVG 1.1//EN" "http://www.w3.org/Graphics/SVG/1.1/DTD/svg11.dtd">
<svg version="1.1" id="Layer_1" xmlns="http://www.w3.org/2000/svg" xmlns:xlink="http://www.w3.org/1999/xlink" x="0px" y="0px"
	 width="172.775px" height="151.017px" viewBox="0 0 172.775 151.017" enable-background="new 0 0 172.775 151.017"
	 xml:space="preserve">
<g display="none">
	<g display="inline">
		<path fill-rule="evenodd" clip-rule="evenodd" fill="#333333" d="M157.624,14.902c-19.601-19.396-50.931-19.801-71.238-1.554
			C66.083-4.898,34.758-4.493,15.152,14.902c-20.203,19.979-20.203,52.37,0,72.355c5.774,5.71,59.685,59.023,59.685,59.023
			c6.386,6.315,16.717,6.315,23.103,0c0,0,59.03-58.376,59.685-59.023C177.826,67.272,177.826,34.882,157.624,14.902z M149.92,79.64
			l-59.686,59.023c-2.119,2.102-5.579,2.102-7.693,0L22.856,79.64c-15.931-15.75-15.931-41.376,0-57.126
			C38.213,7.328,62.903,6.795,79.066,21.318l7.32,6.579l7.324-6.579c16.163-14.523,40.859-13.991,56.21,1.195
			C165.851,38.264,165.851,63.891,149.92,79.64z M49.946,26.965c-0.01,0-0.01,0.005-0.021,0.005
			C37.264,26.981,26.996,37.237,26.996,49.89c0,1.49,1.208,2.697,2.7,2.697c1.493,0,2.7-1.207,2.7-2.697v-0.005
			c0-9.677,7.857-17.525,17.544-17.525h0.005c1.493,0,2.7-1.206,2.7-2.697S51.438,26.965,49.946,26.965z"/>
	</g>
</g>
<path display="none" fill="#333333" d="M157.542,132.393c-0.942-0.625-18.119-11.893-43.666-17.416
	c9.372-11.879,15.388-27.846,17.945-38.475c3.545-14.729,2.17-43.551-11.977-61.51c-8.269-10.495-19.84-16.041-33.457-16.041
	S61.2,4.498,52.931,14.993c-14.146,17.958-15.521,46.78-11.976,61.51c2.557,10.629,8.573,26.596,17.945,38.475
	c-25.547,5.523-42.724,16.791-43.667,17.416c-3.454,2.305-4.994,6.596-3.79,10.564c1.201,3.974,4.866,6.692,9.014,6.692h131.86
	c4.149,0,7.814-2.719,9.015-6.692C162.536,138.989,160.996,134.698,157.542,132.393z M106.48,109.141l-1.54,1.956
	c-11.231,12.898-25.875,12.898-37.105,0l-1.541-1.956c-13.116-16.62-19.624-38.598-16.823-59.57
	C52.042,29.419,63.591,8.37,86.388,8.37s34.345,21.049,36.916,41.201C126.09,70.552,119.605,92.517,106.48,109.141z M20.458,140.23
	c0.648-0.433,16.607-10.895,40.434-16.045l11.7-2.534c4.171,2.745,8.757,4.452,13.797,4.452s9.625-1.707,13.797-4.452l11.7,2.534
	c23.643,5.108,39.541,15.456,40.433,16.045H20.458z"/>
<path display="none" fill-rule="evenodd" clip-rule="evenodd" fill="#333333" d="M139.63,55.028
	C137.285,30.638,116.978,11.5,91.978,11.5c-19.347,0-35.911,11.485-43.549,27.96c-2.297-0.73-4.694-1.231-7.23-1.231
	c-13.286,0-24.056,10.774-24.056,24.055c0,2.642,0.527,5.137,1.315,7.507C8.127,75.816,1.105,86.878,1.105,99.7
	c0,19.189,15.557,34.747,34.747,34.747v0.006h96.218v-0.006c22.145,0,40.087-17.949,40.087-40.094
	C172.157,74.803,158.151,58.567,139.63,55.028z M132.07,123.755v0.005H35.852c-13.265-0.005-24.055-10.795-24.055-24.061
	c0-8.552,4.505-16.278,12.048-20.673c7.33-4.213,7.831-5.048,4.756-12.608c-0.517-1.556-0.768-2.908-0.768-4.135
	c0-7.371,5.993-13.364,13.364-13.364c0,0,3.508-0.25,7.23,1.232c6.134,2.443,6.802,0.104,9.699-6.197
	c6.129-13.218,19.415-21.764,33.85-21.764c19.242,0,35.155,14.555,37.007,33.86c0.663,7.653,0.663,7.653,8.641,9.48
	c13.818,2.636,23.846,14.764,23.846,28.822C161.471,110.568,148.285,123.755,132.07,123.755z"/>
<path display="none" fill="#333333" d="M163.726,56.28c-1.347-3.891-4.809-6.739-8.975-7.357l-40.548-6.03L96.572,6.301
	C94.723,2.458,90.752,0,86.387,0c-4.361,0-8.333,2.459-10.188,6.302L58.575,42.893l-40.553,6.03
	c-4.167,0.618-7.628,3.467-8.97,7.357c-1.341,3.899-0.329,8.194,2.616,11.128L41.382,97.08l-6.892,41.157
	c-0.699,4.143,1.099,8.304,4.618,10.729c1.936,1.327,4.21,2.003,6.482,2.003c1.87,0,3.743-0.456,5.445-1.365l35.351-19.033
	l35.354,19.033c1.704,0.909,3.577,1.365,5.441,1.365c2.277,0,4.546-0.676,6.486-2.003c3.52-2.425,5.312-6.586,4.618-10.729
	l-6.896-41.157l29.72-29.671C164.054,64.474,165.062,60.18,163.726,56.28z M123.339,89.428c-2.492,2.487-3.624,5.982-3.049,9.416
	l6.892,41.162l-35.35-19.028c-1.698-0.914-3.572-1.37-5.445-1.37c-1.87,0-3.743,0.456-5.441,1.37L45.59,140.006l6.897-41.162
	c0.575-3.434-0.557-6.929-3.049-9.416L19.724,59.762l40.548-6.041c3.705-0.551,6.896-2.867,8.489-6.172l17.626-36.587l17.629,36.587
	c1.594,3.305,4.78,5.622,8.484,6.172l40.554,6.041L123.339,89.428z"/>
<g display="none">
	<g display="inline">
		<path fill="#333333" d="M118.971,32.659c-14.312-2.94-28.831-4.43-43.154-4.43c-14.322,0-28.842,1.49-43.153,4.43
			c-1.854,0.381-3.365,1.721-3.959,3.521c-7.624,23.131-7.624,46.582,0,69.711c0.594,1.801,2.105,3.141,3.959,3.521
			c14.311,2.939,28.831,4.43,43.153,4.43c14.323,0,28.842-1.49,43.154-4.43c1.854-0.381,3.364-1.721,3.959-3.521
			c7.622-23.13,7.622-46.581,0-69.711C122.335,34.38,120.824,33.04,118.971,32.659z M117.907,104.243
			c-28.058,5.76-56.124,5.76-84.18,0c-7.299-22.142-7.299-44.271,0-66.412c28.057-5.76,56.123-5.76,84.18,0
			C125.206,59.971,125.206,82.101,117.907,104.243z M164.859,20.495c-1.021-4.301-4.619-7.508-9.007-8.039
			c-23.045-2.794-46.414-4.212-69.466-4.212c-23.05,0-46.42,1.418-69.465,4.212c-4.387,0.531-7.984,3.738-9.006,8.039
			c-8.083,33.913-8.083,68.304,0,102.217c1.022,4.301,4.619,7.508,9.006,8.039c11.103,1.346,22.281,2.336,33.46,3.036
			c-0.604,0.382-0.991,0.773-0.991,1.177c0,2.918,16.563,5.279,36.996,5.279c20.434,0,36.996-2.361,36.996-5.279
			c0-0.403-0.387-0.795-0.991-1.177c11.181-0.7,22.359-1.69,33.461-3.036c4.388-0.531,7.985-3.738,9.007-8.039
			C172.942,88.799,172.942,54.408,164.859,20.495z M154.578,120.269c-45.461,5.512-90.921,5.512-136.382,0
			c-7.731-32.444-7.731-64.887,0-97.33c45.461-5.512,90.921-5.512,136.382,0C162.31,55.382,162.31,87.825,154.578,120.269z
			 M141.881,50.484c4.378,0,7.928-3.548,7.928-7.92c0-4.373-3.55-7.92-7.928-7.92c-4.376,0-7.928,3.548-7.928,7.92
			C133.953,46.936,137.505,50.484,141.881,50.484z M141.881,39.924c1.456,0,2.643,1.186,2.643,2.64c0,1.454-1.187,2.64-2.643,2.64
			c-1.455,0-2.643-1.186-2.643-2.64C139.238,41.109,140.426,39.924,141.881,39.924z M147.166,103.284h-15.855
			c-1.46,0-2.643,1.181-2.643,2.64c0,1.46,1.183,2.641,2.643,2.641h15.855c1.461,0,2.643-1.181,2.643-2.641
			C149.809,104.464,148.627,103.284,147.166,103.284z M152.451,87.444h-15.855c-1.461,0-2.643,1.181-2.643,2.64
			s1.182,2.64,2.643,2.64h15.855c1.461,0,2.643-1.181,2.643-2.64S153.912,87.444,152.451,87.444z M152.451,71.604h-15.855
			c-1.461,0-2.643,1.18-2.643,2.64s1.182,2.641,2.643,2.641h15.855c1.461,0,2.643-1.181,2.643-2.641S153.912,71.604,152.451,71.604z
			 M73.174,49.453L48.937,51.35c-1.445,0.165-2.823,1.475-3.066,2.907l-1.616,14.712c-0.073,1.448,1.053,2.634,2.503,2.634
			c1.445,0,2.679-1.186,2.736-2.639l0.882-10.003c0.196-1.439,1.538-2.733,2.983-2.882l19.814-1.357
			c1.455-0.051,2.642-1.278,2.642-2.733C75.816,50.536,74.629,49.396,73.174,49.453z"/>
	</g>
</g>
<g display="none">
	<g display="inline">
		<path fill="#333333" d="M135.771,66.023h0.01c0.009,1.294,1.056,2.339,2.354,2.339c1.305,0,2.36-1.055,2.36-2.357
			c0-0.014-0.011-0.023-0.011-0.037c-0.026-25.972-21.069-47.018-47.058-47.082c-0.041-0.004-0.078-0.028-0.125-0.028
			c-1.304,0-2.359,1.055-2.359,2.357c0,1.298,1.051,2.353,2.355,2.357v0.019C116.719,23.592,135.771,42.625,135.771,66.023z
			 M51.401,4.144C48.695,1.437,45.073,0,41.386,0c-1.82,0-3.659,0.35-5.411,1.077c-5.291,2.187-8.742,7.344-8.742,13.067
			l-0.005,64.862L12.503,93.722c-5.53,5.521-5.53,14.479,0,20l33.035,33.003c2.765,2.763,6.388,4.144,10.011,4.144
			c3.622,0,7.245-1.381,10.01-4.144l14.729-14.715h64.922c5.729,0,10.891-3.444,13.079-8.729c2.194-5.285,0.981-11.373-3.068-15.415
			L51.401,4.144z M73.614,125.343l-14.729,14.714c-1.203,1.202-2.608,1.382-3.336,1.382s-2.134-0.18-3.337-1.382l-33.035-33.002
			c-1.203-1.201-1.383-2.605-1.383-3.333c0-0.729,0.18-2.132,1.383-3.328l14.725-14.72c0.042-0.041,0.055-0.102,0.096-0.144
			l39.759,39.72C73.715,125.289,73.656,125.302,73.614,125.343z M80.287,122.581c-0.732,0-1.41,0.258-2.11,0.419l-41.93-41.889
			c0.161-0.699,0.419-1.376,0.419-2.104l0.005-56.792l100.463,100.366H80.287z M149.569,119.67c-0.733,1.768-2.442,2.91-4.36,2.91
			h-1.4L36.672,15.548v-1.404c0-1.916,1.143-3.624,2.913-4.355c0.58-0.24,1.184-0.36,1.801-0.36c1.263,0,2.447,0.488,3.337,1.377
			l103.824,103.728C149.901,115.886,150.302,117.903,149.569,119.67z M93.298,9.429v0.019c31.228,0,56.631,25.378,56.631,56.575
			h0.009c0.01,2.597,2.115,4.696,4.715,4.696c2.608,0,4.72-2.108,4.72-4.714c0-0.014-0.01-0.023-0.01-0.037
			c-0.027-36.387-29.523-65.876-65.936-65.94C93.386,0.023,93.349,0,93.302,0c-2.608,0-4.719,2.108-4.719,4.714
			C88.583,7.316,90.693,9.425,93.298,9.429z"/>
	</g>
</g>
<g display="none">
	<g display="inline">
		<path fill-rule="evenodd" clip-rule="evenodd" fill="#333333" d="M85.499,40.417c-23.617,0-42.756,19.139-42.756,42.757
			c0,23.615,19.139,42.754,42.756,42.754c23.616,0,42.756-19.139,42.756-42.754C128.255,59.555,109.115,40.417,85.499,40.417z
			 M109.842,104.038c-11.525,13.45-31.765,15.001-45.209,3.481c-13.45-11.524-15-31.77-3.477-45.213
			c11.519-13.449,31.765-15,45.209-3.476C119.814,70.349,121.364,90.594,109.842,104.038z M85.499,61.793
			c-11.806,0-21.373,9.572-21.377,21.374v0.006c0,1.477,1.194,2.671,2.671,2.671c1.478,0,2.672-1.194,2.672-2.671v-0.006
			c0.006-8.852,7.176-16.029,16.034-16.029c1.477,0,2.672-1.194,2.672-2.671C88.171,62.99,86.976,61.793,85.499,61.793z
			 M157.612,35.287l-23.168-3.863l-7.338-18.349C124.653,6.951,118.808,3,112.221,3H58.776c-6.586,0-12.432,3.951-14.89,10.078
			l-7.333,18.346l-23.158,3.863C5.624,36.575-0.013,43.225-0.013,51.1v80.161c0,8.842,7.193,16.034,16.034,16.034h138.956
			c8.841,0,16.033-7.192,16.033-16.034V51.1C171.01,43.225,165.373,36.575,157.612,35.287z M160.32,131.261
			c0,2.953-2.39,5.345-5.344,5.345H16.021c-2.954,0-5.344-2.392-5.344-5.345V51.1c0-2.615,1.889-4.844,4.467-5.271l29.097-4.849
			l9.572-23.93c0.814-2.031,2.776-3.362,4.963-3.362h53.444c2.187,0,4.149,1.331,4.963,3.362l9.573,23.93l29.097,4.849
			c2.578,0.427,4.467,2.656,4.467,5.271V131.261z"/>
	</g>
</g>
<g>
	<g>
		<path fill="#FFFFFF" d="M141.337,19.568l-109.899,0.02c-2.761,0-4.995,2.214-4.995,4.976V94.5c0,2.761,2.234,4.995,4.995,4.995
			h109.899c2.762,0,4.995-2.234,4.995-4.995V24.563C146.332,21.802,144.099,19.568,141.337,19.568z M141.337,94.518H31.438V24.563
			h109.899V94.518z M151.328-0.395H21.447c-8.277,0-14.986,6.708-14.986,14.987V114.5c0,8.263,6.684,14.958,14.938,14.98h50.003
			v6.074l-31.183,4.056c-2.224,0.554-3.785,2.55-3.785,4.844c0,2.76,2.235,4.995,4.996,4.995h89.916
			c2.762,0,4.997-2.235,4.997-4.995c0-2.294-1.562-4.29-3.786-4.844l-31.182-4.056v-6.074h50.003
			c8.254-0.022,14.938-6.718,14.938-14.98V14.592C166.314,6.313,159.606-0.395,151.328-0.395z M156.323,114.5
			c0,2.756-2.239,4.997-4.995,4.997H21.447c-2.756,0-4.995-2.241-4.995-4.997V14.592c0-2.757,2.239-4.996,4.995-4.996h129.881
			c2.756,0,4.995,2.239,4.995,4.996V114.5z"/>
	</g>
</g>
</svg>
