<?xml version="1.0" encoding="utf-8"?>
<!-- Generator: Adobe Illustrator 16.0.0, SVG Export Plug-In . SVG Version: 6.00 Build 0)  -->
<!DOCTYPE svg PUBLIC "-//W3C//DTD SVG 1.1//EN" "http://www.w3.org/Graphics/SVG/1.1/DTD/svg11.dtd">
<svg version="1.1" id="Layer_1" xmlns="http://www.w3.org/2000/svg" xmlns:xlink="http://www.w3.org/1999/xlink" x="0px" y="0px"
	 width="172.775px" height="151.017px" viewBox="0 0 172.775 151.017" enable-background="new 0 0 172.775 151.017"
	 xml:space="preserve">
<g>
	<g>
		<path fill-rule="evenodd" clip-rule="evenodd" fill="#FFFFFF" d="M157.624,14.902c-19.601-19.396-50.931-19.801-71.238-1.554
			C66.083-4.898,34.758-4.493,15.152,14.902c-20.203,19.979-20.203,52.37,0,72.355c5.774,5.71,59.685,59.023,59.685,59.023
			c6.386,6.315,16.717,6.315,23.103,0c0,0,59.03-58.376,59.685-59.023C177.826,67.272,177.826,34.882,157.624,14.902z M149.92,79.64
			l-59.686,59.023c-2.119,2.102-5.579,2.102-7.693,0L22.856,79.64c-15.931-15.75-15.931-41.376,0-57.126
			C38.213,7.328,62.903,6.795,79.066,21.318l7.32,6.579l7.324-6.579c16.163-14.523,40.859-13.991,56.21,1.195
			C165.851,38.264,165.851,63.891,149.92,79.64z M49.946,26.965c-0.01,0-0.01,0.005-0.021,0.005
			C37.264,26.981,26.996,37.237,26.996,49.89c0,1.49,1.208,2.697,2.7,2.697c1.493,0,2.7-1.207,2.7-2.697v-0.005
			c0-9.677,7.857-17.525,17.544-17.525h0.005c1.493,0,2.7-1.206,2.7-2.697S51.438,26.965,49.946,26.965z"/>
	</g>
</g>
</svg>
