<?xml version="1.0" encoding="utf-8"?>
<!-- Generator: Adobe Illustrator 16.0.0, SVG Export Plug-In . SVG Version: 6.00 Build 0)  -->
<!DOCTYPE svg PUBLIC "-//W3C//DTD SVG 1.1//EN" "http://www.w3.org/Graphics/SVG/1.1/DTD/svg11.dtd">
<svg version="1.1" xmlns="http://www.w3.org/2000/svg" xmlns:xlink="http://www.w3.org/1999/xlink" x="0px" y="0px"
	 width="22.937px" height="15.49px" viewBox="0 0 22.937 15.49" enable-background="new 0 0 22.937 15.49" xml:space="preserve">
<g id="Layer_2">
</g>
<g id="Layer_1">
	<g display="none">
		<g display="inline">
			<path fill="#FFFFFF" d="M12.32,1.147c-0.969-0.44-1.997-0.666-3.06-0.666c-0.884,0-1.754,0.171-2.59,0.484
				c0.197,0.179,5.396,4.898,5.65,5.129C12.32,5.752,12.32,1.251,12.32,1.147L12.32,1.147z"/>
		</g>
		<g display="inline">
			<path fill="#FFFFFF" d="M5.442,14.236c0-0.289,0-6.037,0-6.378c-0.248,0.225-2.979,2.708-3.065,2.785
				C2.973,12.135,4.058,13.398,5.442,14.236L5.442,14.236z"/>
		</g>
		<g display="inline">
			<path fill="#FFFFFF" d="M1.843,7.901c0,0.635,0.096,1.286,0.27,1.928c0.201-0.185,6.446-5.86,6.575-5.978
				C8.563,3.74,5.965,1.381,5.88,1.304C3.39,2.582,1.843,5.103,1.843,7.901L1.843,7.901z"/>
		</g>
		<g display="inline">
			<path fill="#FFFFFF" d="M6.222,11.124c0,0.155,0,3.435,0,3.54c0.754,0.339,1.543,0.549,2.355,0.625h1.361
				c2.562-0.239,4.85-1.821,5.986-4.165C15.658,11.124,6.381,11.124,6.222,11.124L6.222,11.124z"/>
		</g>
		<g display="inline">
			<path fill="#FFFFFF" d="M13.102,1.572c0,0.294,0,8.613,0,8.772c0.152,0,3.039,0,3.158,0c0.276-0.792,0.421-1.613,0.421-2.443
				C16.681,5.322,15.31,2.916,13.102,1.572L13.102,1.572z"/>
		</g>
	</g>
	<g display="none">
		<path display="inline" fill="#FFFFFF" d="M14.169,7.534H4.487c-1.538,0-2.786,1.249-2.786,2.787v2.241
			c0,1.539,1.248,2.786,2.786,2.786h9.682c1.539,0,2.789-1.247,2.789-2.786V10.32C16.958,8.782,15.708,7.534,14.169,7.534z
			 M6.522,9.277h-0.9v4.473H4.753V9.277H3.852V8.517h2.67V9.277z M9.065,13.75H8.293v-0.423c-0.144,0.156-0.291,0.275-0.446,0.356
			c-0.154,0.084-0.303,0.122-0.447,0.122c-0.18,0-0.313-0.056-0.404-0.171c-0.09-0.116-0.135-0.288-0.135-0.52V9.889h0.771v2.963
			c0,0.09,0.017,0.155,0.048,0.198c0.034,0.041,0.086,0.06,0.159,0.06c0.055,0,0.128-0.025,0.215-0.08s0.167-0.123,0.239-0.208
			V9.889h0.772V13.75z M11.864,12.953c0,0.272-0.06,0.482-0.181,0.629c-0.121,0.146-0.297,0.217-0.523,0.217
			c-0.152,0-0.287-0.027-0.405-0.083c-0.119-0.056-0.229-0.142-0.329-0.263v0.297H9.645V8.517h0.781v1.686
			c0.104-0.116,0.214-0.207,0.329-0.269c0.12-0.062,0.238-0.091,0.357-0.091c0.247,0,0.43,0.08,0.56,0.246
			c0.129,0.163,0.192,0.403,0.192,0.721V12.953z M14.541,11.911h-1.475v0.729c0,0.202,0.023,0.344,0.073,0.423
			c0.054,0.078,0.14,0.116,0.263,0.116c0.129,0,0.218-0.033,0.268-0.1c0.052-0.066,0.078-0.213,0.078-0.439v-0.176h0.793v0.196
			c0,0.397-0.096,0.695-0.291,0.895c-0.19,0.2-0.481,0.301-0.863,0.301c-0.347,0-0.622-0.106-0.819-0.319
			c-0.197-0.21-0.298-0.503-0.298-0.876v-1.733c0-0.335,0.11-0.609,0.33-0.82c0.217-0.21,0.497-0.314,0.843-0.314
			c0.353,0,0.626,0.097,0.816,0.294c0.188,0.194,0.282,0.474,0.282,0.841V11.911z"/>
		<path display="inline" fill="#FFFFFF" d="M13.411,10.469c-0.124,0-0.212,0.035-0.266,0.106c-0.056,0.068-0.079,0.185-0.079,0.347
			v0.391h0.682v-0.391c0-0.162-0.028-0.278-0.082-0.347C13.614,10.504,13.527,10.469,13.411,10.469z"/>
		<path display="inline" fill="#FFFFFF" d="M10.746,10.455c-0.052,0-0.108,0.013-0.161,0.037c-0.055,0.025-0.108,0.065-0.159,0.119
			v2.405c0.062,0.062,0.123,0.11,0.182,0.139c0.061,0.024,0.122,0.04,0.187,0.04c0.097,0,0.164-0.027,0.209-0.084
			c0.043-0.053,0.065-0.142,0.065-0.264v-1.994c0-0.133-0.024-0.23-0.079-0.298C10.932,10.488,10.852,10.455,10.746,10.455z"/>
		<polygon display="inline" fill="#FFFFFF" points="5.754,6.191 6.733,6.191 6.733,3.8 7.872,0.426 6.878,0.426 6.272,2.73 
			6.21,2.73 5.576,0.426 4.591,0.426 5.754,3.907 		"/>
		<path display="inline" fill="#FFFFFF" d="M9.197,6.299c0.394,0,0.703-0.104,0.931-0.31c0.225-0.208,0.337-0.492,0.337-0.856V2.936
			c0-0.325-0.114-0.59-0.345-0.796C9.891,1.935,9.596,1.832,9.236,1.832c-0.395,0-0.709,0.097-0.943,0.292
			c-0.234,0.195-0.35,0.456-0.35,0.787v2.205c0,0.361,0.114,0.647,0.342,0.862C8.512,6.191,8.817,6.299,9.197,6.299z M8.837,2.879
			c0-0.093,0.034-0.167,0.098-0.225c0.068-0.058,0.154-0.086,0.261-0.086c0.115,0,0.207,0.028,0.278,0.086
			c0.07,0.058,0.105,0.132,0.105,0.225v2.317c0,0.114-0.035,0.203-0.104,0.27c-0.07,0.065-0.163,0.097-0.279,0.097
			c-0.116,0-0.204-0.031-0.267-0.096C8.868,5.402,8.837,5.313,8.837,5.196V2.879z"/>
		<path display="inline" fill="#FFFFFF" d="M11.776,6.253c0.162,0,0.33-0.045,0.503-0.135c0.174-0.091,0.343-0.224,0.501-0.396v0.47
			h0.869V1.939H12.78v3.229c-0.08,0.092-0.171,0.168-0.267,0.229c-0.099,0.059-0.18,0.089-0.244,0.089
			c-0.08,0-0.142-0.022-0.177-0.068C12.059,5.373,12.038,5.3,12.038,5.2V1.939H11.17v3.555c0,0.253,0.051,0.443,0.15,0.568
			C11.425,6.189,11.576,6.253,11.776,6.253z"/>
	</g>
	<g display="none">
		<path display="inline" fill="#BCBCBC" d="M9.441,0.426c-4.125,0-7.47,3.344-7.47,7.47c0,3.059,1.84,5.688,4.471,6.841
			c-0.021-0.52-0.003-1.146,0.129-1.715c0.144-0.607,0.962-4.07,0.962-4.07S7.296,8.475,7.296,7.77c0-1.107,0.642-1.934,1.44-1.934
			c0.679,0,1.007,0.51,1.007,1.122c0,0.683-0.436,1.705-0.66,2.65c-0.188,0.793,0.396,1.439,1.179,1.439
			c1.415,0,2.369-1.818,2.369-3.971c0-1.637-1.104-2.863-3.109-2.863c-2.265,0-3.677,1.689-3.677,3.578
			c0,0.651,0.192,1.109,0.493,1.465c0.138,0.162,0.157,0.229,0.106,0.416c-0.036,0.138-0.117,0.469-0.152,0.6
			c-0.049,0.188-0.202,0.257-0.373,0.187C4.875,10.032,4.389,8.89,4.389,7.604c0-2.122,1.79-4.667,5.339-4.667
			c2.852,0,4.729,2.064,4.729,4.28c0,2.931-1.63,5.12-4.029,5.12c-0.808,0-1.565-0.436-1.826-0.932c0,0-0.434,1.723-0.525,2.054
			c-0.158,0.576-0.469,1.151-0.752,1.601c0.672,0.197,1.382,0.306,2.117,0.306c4.125,0,7.47-3.344,7.47-7.47
			S13.566,0.426,9.441,0.426z"/>
	</g>
	<path display="none" fill="#FFFFFF" d="M12.926,5.012h-2.449V3.406c0-0.603,0.399-0.744,0.681-0.744s1.729,0,1.729,0V0.01L10.506,0
		C7.863,0,7.262,1.979,7.262,3.244v1.768H5.733v2.733h1.528c0,3.507,0,7.733,0,7.733h3.215c0,0,0-4.268,0-7.733h2.169L12.926,5.012z
		"/>
	<path display="none" fill="#FFFFFF" d="M9.501,0C5.249,0,1.802,3.448,1.802,7.699c0,4.252,3.447,7.698,7.699,7.698
		S17.2,11.951,17.2,7.699C17.2,3.448,13.753,0,9.501,0z M6.549,10.084c-1.339,0-2.423-1.083-2.423-2.422
		c0-1.339,1.084-2.423,2.423-2.423c1.338,0,2.423,1.084,2.423,2.423C8.972,9.001,7.887,10.084,6.549,10.084z M12.629,10.084
		c-1.339,0-2.423-1.083-2.423-2.422c0-1.339,1.084-2.423,2.423-2.423c1.338,0,2.423,1.084,2.423,2.423
		C15.052,9.001,13.967,10.084,12.629,10.084z"/>
	<path display="none" fill="#FFFFFF" d="M16.601,9.39c0.11-0.505,0.169-1.025,0.169-1.563c0-4.022-3.262-7.284-7.285-7.284
		c-0.424,0-0.84,0.037-1.246,0.106C7.588,0.239,6.817,0,5.991,0C3.658,0,1.766,1.892,1.766,4.226c0,0.78,0.212,1.509,0.581,2.136
		C2.25,6.835,2.2,7.325,2.2,7.827c0,4.024,3.261,7.285,7.285,7.285c0.456,0,0.901-0.042,1.333-0.122
		c0.596,0.319,1.276,0.501,1.998,0.501c2.334,0,4.225-1.89,4.225-4.225C17.04,10.593,16.882,9.956,16.601,9.39z M13.221,11.308
		c-0.337,0.479-0.835,0.855-1.48,1.125c-0.639,0.264-1.404,0.399-2.276,0.399c-1.046,0-1.923-0.184-2.608-0.547
		c-0.49-0.264-0.893-0.621-1.2-1.065c-0.309-0.445-0.465-0.889-0.465-1.315c0-0.268,0.102-0.499,0.303-0.688
		c0.2-0.188,0.455-0.283,0.761-0.283c0.25,0,0.467,0.074,0.642,0.224C7.064,9.298,7.208,9.509,7.323,9.78
		c0.129,0.296,0.27,0.547,0.418,0.741c0.144,0.189,0.349,0.349,0.612,0.473c0.264,0.126,0.62,0.189,1.058,0.189
		c0.602,0,1.096-0.128,1.467-0.383c0.363-0.246,0.539-0.545,0.539-0.908c0-0.289-0.093-0.515-0.28-0.692
		c-0.199-0.186-0.46-0.329-0.778-0.428c-0.33-0.103-0.781-0.214-1.336-0.331C8.266,8.279,7.624,8.087,7.113,7.87
		C6.59,7.648,6.169,7.339,5.861,6.954C5.549,6.562,5.39,6.072,5.39,5.494c0-0.55,0.167-1.047,0.495-1.474
		C6.21,3.595,6.686,3.265,7.299,3.039c0.604-0.224,1.324-0.337,2.138-0.337c0.65,0,1.222,0.076,1.7,0.224
		c0.479,0.149,0.884,0.352,1.202,0.6c0.32,0.25,0.56,0.518,0.709,0.796c0.151,0.281,0.228,0.561,0.228,0.831
		c0,0.261-0.101,0.497-0.299,0.704c-0.199,0.207-0.451,0.312-0.748,0.312c-0.27,0-0.481-0.066-0.628-0.195
		c-0.136-0.121-0.277-0.309-0.435-0.58c-0.182-0.344-0.401-0.617-0.653-0.809c-0.246-0.187-0.655-0.281-1.217-0.281
		c-0.521,0-0.946,0.105-1.261,0.312C7.73,4.814,7.582,5.042,7.582,5.313c0,0.167,0.048,0.305,0.146,0.424
		c0.103,0.127,0.25,0.237,0.434,0.33C8.354,6.164,8.551,6.24,8.748,6.294c0.202,0.057,0.542,0.14,1.008,0.248
		c0.589,0.127,1.131,0.269,1.611,0.422c0.485,0.155,0.904,0.346,1.246,0.569c0.349,0.227,0.625,0.518,0.82,0.866
		c0.197,0.35,0.297,0.782,0.297,1.283C13.73,10.283,13.559,10.83,13.221,11.308z"/>
	<g>
		<path fill="#BCBCBC" d="M9.256,6.977c0,0,2.171-0.162,2.171-2.707c0-2.545-1.775-3.788-4.025-3.788H3.261H3.14H0v14.225h3.14
			h0.122h4.141c0,0,4.518,0.143,4.518-4.199C11.92,10.508,12.117,6.977,9.256,6.977z M3.261,3.011h3.607h0.533
			c0,0,1.006,0,1.006,1.479c0,1.48-0.592,1.694-1.263,1.694H3.261V3.011z M7.192,12.18c-0.109,0.002-0.202,0-0.265,0H3.261V8.377
			h4.141c0,0,1.5-0.02,1.5,1.953C8.901,11.994,7.781,12.166,7.192,12.18z"/>
		<path fill="#BCBCBC" d="M17.947,4.101c-5.471,0-5.466,5.465-5.466,5.465s-0.375,5.438,5.466,5.438c0,0,4.867,0.279,4.867-3.783
			h-2.504c0,0,0.084,1.531-2.28,1.531c0,0-2.503,0.166-2.503-2.477h7.37C22.897,10.275,23.704,4.101,17.947,4.101z M15.499,8.377
			c0,0,0.306-2.193,2.503-2.193c2.198,0,2.17,2.193,2.17,2.193H15.499z"/>
		<rect x="14.887" y="1.32" fill="#BCBCBC" width="5.868" height="1.752"/>
	</g>
</g>
</svg>
