<?xml version="1.0" encoding="utf-8"?>
<!-- Generator: Adobe Illustrator 16.0.0, SVG Export Plug-In . SVG Version: 6.00 Build 0)  -->
<!DOCTYPE svg PUBLIC "-//W3C//DTD SVG 1.1//EN" "http://www.w3.org/Graphics/SVG/1.1/DTD/svg11.dtd">
<svg version="1.1" xmlns="http://www.w3.org/2000/svg" xmlns:xlink="http://www.w3.org/1999/xlink" x="0px" y="0px" width="28px"
	 height="16px" viewBox="0 0 28 16" enable-background="new 0 0 28 16" xml:space="preserve">
<g id="Layer_2">
</g>
<g id="Layer_1">
	<g display="none">
		<g display="inline">
			<path fill="#FFFFFF" d="M11.347,0.974c-0.969-0.44-1.997-0.666-3.06-0.666c-0.884,0-1.754,0.171-2.59,0.484
				c0.197,0.179,5.396,4.898,5.65,5.129C11.347,5.579,11.347,1.078,11.347,0.974L11.347,0.974z"/>
		</g>
		<g display="inline">
			<path fill="#FFFFFF" d="M4.469,14.063c0-0.289,0-6.037,0-6.378c-0.248,0.225-2.979,2.708-3.065,2.785
				C1.999,11.961,3.084,13.225,4.469,14.063L4.469,14.063z"/>
		</g>
		<g display="inline">
			<path fill="#FFFFFF" d="M0.87,7.728c0,0.635,0.096,1.286,0.27,1.928c0.201-0.185,6.446-5.86,6.575-5.978
				C7.59,3.566,4.992,1.208,4.907,1.131C2.417,2.409,0.87,4.93,0.87,7.728L0.87,7.728z"/>
		</g>
		<g display="inline">
			<path fill="#FFFFFF" d="M5.249,10.951c0,0.155,0,3.435,0,3.54c0.754,0.339,1.543,0.549,2.355,0.625h1.361
				c2.562-0.239,4.85-1.821,5.986-4.165C14.685,10.951,5.408,10.951,5.249,10.951L5.249,10.951z"/>
		</g>
		<g display="inline">
			<path fill="#FFFFFF" d="M12.128,1.398c0,0.294,0,8.613,0,8.772c0.152,0,3.039,0,3.158,0c0.276-0.792,0.421-1.613,0.421-2.443
				C15.707,5.148,14.336,2.742,12.128,1.398L12.128,1.398z"/>
		</g>
	</g>
	<g display="none">
		<path display="inline" fill="#FFFFFF" d="M13.195,7.36H3.513c-1.538,0-2.786,1.249-2.786,2.787v2.241
			c0,1.539,1.248,2.786,2.786,2.786h9.682c1.539,0,2.789-1.247,2.789-2.786v-2.241C15.984,8.609,14.734,7.36,13.195,7.36z
			 M5.548,9.104h-0.9v4.473H3.779V9.104H2.878V8.343h2.67V9.104z M8.091,13.577H7.319v-0.423c-0.144,0.156-0.291,0.275-0.446,0.356
			c-0.154,0.084-0.303,0.122-0.447,0.122c-0.18,0-0.313-0.056-0.404-0.171c-0.09-0.116-0.135-0.288-0.135-0.52V9.715h0.771v2.963
			c0,0.09,0.017,0.155,0.048,0.198c0.034,0.041,0.086,0.06,0.159,0.06c0.055,0,0.128-0.025,0.215-0.08s0.167-0.123,0.239-0.208
			V9.715h0.772V13.577z M10.891,12.78c0,0.272-0.06,0.482-0.181,0.629c-0.121,0.146-0.297,0.217-0.523,0.217
			c-0.152,0-0.287-0.027-0.405-0.083c-0.119-0.056-0.229-0.142-0.329-0.263v0.297H8.671V8.343h0.781v1.686
			C9.557,9.913,9.666,9.822,9.781,9.76c0.12-0.062,0.238-0.091,0.357-0.091c0.247,0,0.43,0.08,0.56,0.246
			c0.129,0.163,0.192,0.403,0.192,0.721V12.78z M13.567,11.738h-1.475v0.729c0,0.202,0.023,0.344,0.073,0.423
			c0.054,0.078,0.14,0.116,0.263,0.116c0.129,0,0.218-0.033,0.268-0.1c0.052-0.066,0.078-0.213,0.078-0.439v-0.176h0.793v0.196
			c0,0.397-0.096,0.695-0.291,0.895c-0.19,0.2-0.481,0.301-0.863,0.301c-0.347,0-0.622-0.106-0.819-0.319
			c-0.197-0.21-0.298-0.503-0.298-0.876v-1.733c0-0.335,0.11-0.609,0.33-0.82c0.217-0.21,0.497-0.314,0.843-0.314
			c0.353,0,0.626,0.097,0.816,0.294c0.188,0.194,0.282,0.474,0.282,0.841V11.738z"/>
		<path display="inline" fill="#FFFFFF" d="M12.438,10.295c-0.124,0-0.212,0.035-0.266,0.106c-0.056,0.068-0.079,0.185-0.079,0.347
			v0.391h0.682v-0.391c0-0.162-0.028-0.278-0.082-0.347C12.641,10.331,12.554,10.295,12.438,10.295z"/>
		<path display="inline" fill="#FFFFFF" d="M9.772,10.282c-0.052,0-0.108,0.013-0.161,0.037c-0.055,0.025-0.108,0.065-0.159,0.119
			v2.405c0.062,0.062,0.123,0.11,0.182,0.139c0.061,0.024,0.122,0.04,0.187,0.04c0.097,0,0.164-0.027,0.209-0.084
			c0.043-0.053,0.065-0.142,0.065-0.264V10.68c0-0.133-0.024-0.23-0.079-0.298C9.958,10.315,9.878,10.282,9.772,10.282z"/>
		<polygon display="inline" fill="#FFFFFF" points="4.781,6.018 5.76,6.018 5.76,3.626 6.898,0.252 5.905,0.252 5.299,2.557 
			5.237,2.557 4.602,0.252 3.617,0.252 4.781,3.734 		"/>
		<path display="inline" fill="#FFFFFF" d="M8.224,6.126c0.394,0,0.703-0.104,0.931-0.31C9.379,5.607,9.491,5.324,9.491,4.96V2.762
			c0-0.325-0.114-0.59-0.345-0.796C8.917,1.761,8.623,1.658,8.263,1.658c-0.395,0-0.709,0.097-0.943,0.292
			c-0.234,0.195-0.35,0.456-0.35,0.787v2.205c0,0.361,0.114,0.647,0.342,0.862C7.538,6.018,7.843,6.126,8.224,6.126z M7.863,2.706
			c0-0.093,0.034-0.167,0.098-0.225c0.068-0.058,0.154-0.086,0.261-0.086c0.115,0,0.207,0.028,0.278,0.086
			c0.07,0.058,0.105,0.132,0.105,0.225v2.317c0,0.114-0.035,0.203-0.104,0.27C8.431,5.357,8.338,5.39,8.222,5.39
			c-0.116,0-0.204-0.031-0.267-0.096C7.894,5.229,7.863,5.14,7.863,5.023V2.706z"/>
		<path display="inline" fill="#FFFFFF" d="M10.803,6.08c0.162,0,0.33-0.045,0.503-0.135c0.174-0.091,0.343-0.224,0.501-0.396v0.47
			h0.869V1.766h-0.869v3.229c-0.08,0.092-0.171,0.168-0.267,0.229c-0.099,0.059-0.18,0.089-0.244,0.089
			c-0.08,0-0.142-0.022-0.177-0.068c-0.034-0.045-0.055-0.118-0.055-0.217V1.766h-0.868V5.32c0,0.253,0.051,0.443,0.15,0.568
			C10.451,6.016,10.603,6.08,10.803,6.08z"/>
	</g>
	<g display="none">
		<path display="inline" fill="#BCBCBC" d="M8.468,0.252c-4.125,0-7.47,3.344-7.47,7.47c0,3.059,1.84,5.688,4.471,6.841
			c-0.021-0.52-0.003-1.146,0.129-1.715c0.144-0.607,0.962-4.07,0.962-4.07S6.322,8.301,6.322,7.596c0-1.107,0.642-1.934,1.44-1.934
			c0.679,0,1.007,0.51,1.007,1.122c0,0.683-0.436,1.705-0.66,2.65c-0.188,0.793,0.396,1.439,1.179,1.439
			c1.415,0,2.369-1.818,2.369-3.971c0-1.637-1.104-2.863-3.109-2.863c-2.265,0-3.677,1.689-3.677,3.578
			c0,0.651,0.192,1.109,0.493,1.465c0.138,0.162,0.157,0.229,0.106,0.416c-0.036,0.138-0.117,0.469-0.152,0.6
			c-0.049,0.188-0.202,0.257-0.373,0.187C3.902,9.859,3.416,8.716,3.416,7.431c0-2.122,1.79-4.667,5.339-4.667
			c2.852,0,4.729,2.064,4.729,4.28c0,2.931-1.63,5.12-4.029,5.12c-0.808,0-1.565-0.436-1.826-0.932c0,0-0.434,1.723-0.525,2.054
			c-0.158,0.576-0.469,1.151-0.752,1.601c0.672,0.197,1.382,0.306,2.117,0.306c4.125,0,7.47-3.344,7.47-7.47
			S12.593,0.252,8.468,0.252z"/>
	</g>
	<path display="none" fill="#FFFFFF" d="M11.952,4.839H9.503V3.232c0-0.603,0.399-0.744,0.681-0.744s1.729,0,1.729,0v-2.652
		l-2.38-0.01c-2.643,0-3.244,1.979-3.244,3.244v1.768H4.76v2.733h1.528c0,3.507,0,7.733,0,7.733h3.215c0,0,0-4.268,0-7.733h2.169
		L11.952,4.839z"/>
	<path display="none" fill="#FFFFFF" d="M8.527-0.173c-4.252,0-7.699,3.448-7.699,7.699c0,4.252,3.447,7.698,7.699,7.698
		s7.699-3.446,7.699-7.698C16.227,3.274,12.779-0.173,8.527-0.173z M5.575,9.911c-1.339,0-2.423-1.083-2.423-2.422
		c0-1.339,1.084-2.423,2.423-2.423c1.338,0,2.423,1.084,2.423,2.423C7.998,8.828,6.913,9.911,5.575,9.911z M11.655,9.911
		c-1.339,0-2.423-1.083-2.423-2.422c0-1.339,1.084-2.423,2.423-2.423c1.338,0,2.423,1.084,2.423,2.423
		C14.078,8.828,12.993,9.911,11.655,9.911z"/>
	<path display="none" fill="#FFFFFF" d="M15.627,9.216c0.11-0.505,0.169-1.025,0.169-1.563c0-4.022-3.262-7.284-7.285-7.284
		c-0.424,0-0.84,0.037-1.246,0.106c-0.651-0.41-1.421-0.649-2.248-0.649c-2.333,0-4.225,1.892-4.225,4.226
		c0,0.78,0.212,1.509,0.581,2.136C1.276,6.662,1.226,7.152,1.226,7.653c0,4.024,3.261,7.285,7.285,7.285
		c0.456,0,0.901-0.042,1.333-0.122c0.596,0.319,1.276,0.501,1.998,0.501c2.334,0,4.225-1.89,4.225-4.225
		C16.066,10.419,15.908,9.783,15.627,9.216z M12.247,11.134c-0.337,0.479-0.835,0.855-1.48,1.125
		c-0.639,0.264-1.404,0.399-2.276,0.399c-1.046,0-1.923-0.184-2.608-0.547c-0.49-0.264-0.893-0.621-1.2-1.065
		c-0.309-0.445-0.465-0.889-0.465-1.315c0-0.268,0.102-0.499,0.303-0.688c0.2-0.188,0.455-0.283,0.761-0.283
		c0.25,0,0.467,0.074,0.642,0.224C6.09,9.125,6.234,9.335,6.35,9.607c0.129,0.296,0.27,0.547,0.418,0.741
		c0.144,0.189,0.349,0.349,0.612,0.473c0.264,0.126,0.62,0.189,1.058,0.189c0.602,0,1.096-0.128,1.467-0.383
		c0.363-0.246,0.539-0.545,0.539-0.908c0-0.289-0.093-0.515-0.28-0.692c-0.199-0.186-0.46-0.329-0.778-0.428
		c-0.33-0.103-0.781-0.214-1.336-0.331C7.292,8.106,6.65,7.914,6.14,7.697C5.616,7.475,5.196,7.166,4.888,6.781
		c-0.312-0.392-0.471-0.882-0.471-1.46c0-0.55,0.167-1.047,0.495-1.474c0.325-0.425,0.801-0.756,1.414-0.982
		C6.93,2.642,7.649,2.528,8.463,2.528c0.65,0,1.222,0.076,1.7,0.224c0.479,0.149,0.884,0.352,1.202,0.6
		c0.32,0.25,0.56,0.518,0.709,0.796c0.151,0.281,0.228,0.561,0.228,0.831c0,0.261-0.101,0.497-0.299,0.704
		c-0.199,0.207-0.451,0.312-0.748,0.312c-0.27,0-0.481-0.066-0.628-0.195c-0.136-0.121-0.277-0.309-0.435-0.58
		c-0.182-0.344-0.401-0.617-0.653-0.809C9.293,4.224,8.884,4.13,8.322,4.13c-0.521,0-0.946,0.105-1.261,0.312
		C6.756,4.641,6.608,4.869,6.608,5.14c0,0.167,0.048,0.305,0.146,0.424c0.103,0.127,0.25,0.237,0.434,0.33
		C7.38,5.991,7.577,6.067,7.774,6.121c0.202,0.057,0.542,0.14,1.008,0.248c0.589,0.127,1.131,0.269,1.611,0.422
		c0.485,0.155,0.904,0.346,1.246,0.569c0.349,0.227,0.625,0.518,0.82,0.866c0.197,0.35,0.297,0.782,0.297,1.283
		C12.757,10.11,12.585,10.657,12.247,11.134z"/>
	<g display="none">
		<path display="inline" fill="#FFFFFF" d="M8.282,6.803c0,0,2.171-0.162,2.171-2.707c0-2.545-1.775-3.788-4.025-3.788H2.288H2.166
			h-3.14v14.225h3.14h0.122h4.141c0,0,4.518,0.143,4.518-4.199C10.946,10.334,11.144,6.803,8.282,6.803z M2.288,2.837h3.607h0.533
			c0,0,1.006,0,1.006,1.479c0,1.48-0.592,1.694-1.263,1.694H2.288V2.837z M6.219,12.006c-0.109,0.002-0.202,0-0.265,0H2.288V8.204
			h4.141c0,0,1.5-0.02,1.5,1.953C7.928,11.821,6.808,11.993,6.219,12.006z"/>
		<path display="inline" fill="#FFFFFF" d="M16.974,3.928c-5.471,0-5.466,5.465-5.466,5.465s-0.375,5.438,5.466,5.438
			c0,0,4.867,0.279,4.867-3.783h-2.504c0,0,0.084,1.531-2.28,1.531c0,0-2.503,0.166-2.503-2.477h7.37
			C21.924,10.102,22.73,3.928,16.974,3.928z M14.525,8.204c0,0,0.306-2.193,2.503-2.193c2.198,0,2.17,2.193,2.17,2.193H14.525z"/>
		<rect x="13.913" y="1.146" display="inline" fill="#FFFFFF" width="5.868" height="1.752"/>
	</g>
	<g display="none">
		<path display="inline" fill="#FFFFFF" d="M18.447,7.315h-2.502V4.813c0-0.191-0.155-0.346-0.347-0.346h-0.713
			c-0.191,0-0.346,0.155-0.346,0.346v2.502h-2.502c-0.191,0-0.347,0.155-0.347,0.347v0.713c0,0.191,0.155,0.346,0.347,0.346h2.502
			v2.503c0,0.192,0.154,0.347,0.346,0.347h0.713c0.191,0,0.347-0.154,0.347-0.347V8.721h2.502c0.19,0,0.348-0.155,0.348-0.346V7.662
			C18.795,7.471,18.638,7.315,18.447,7.315z"/>
		<path display="inline" fill="#FFFFFF" d="M10.036,9.509C9.511,9.136,9.031,8.591,9.023,8.423c0-0.307,0.026-0.452,0.713-0.987
			c0.887-0.695,1.376-1.608,1.376-2.572c0-0.875-0.268-1.651-0.723-2.197h0.354c0.073,0,0.144-0.023,0.203-0.065l0.984-0.713
			C12.053,1.8,12.104,1.644,12.057,1.5c-0.046-0.143-0.178-0.24-0.328-0.24H7.324c-0.48,0-0.971,0.085-1.452,0.251
			c-1.605,0.553-2.727,1.92-2.727,3.325c0,1.989,1.541,3.496,3.6,3.544c-0.04,0.158-0.06,0.312-0.06,0.464
			c0,0.307,0.077,0.598,0.237,0.877C6.904,9.722,6.886,9.722,6.867,9.722c-1.963,0-3.735,0.963-4.408,2.396
			c-0.175,0.373-0.265,0.749-0.265,1.122c0,0.361,0.093,0.71,0.275,1.037c0.423,0.756,1.331,1.343,2.558,1.653
			c0.633,0.159,1.314,0.242,2.021,0.242c0.634,0,1.241-0.084,1.799-0.245c1.747-0.507,2.875-1.791,2.875-3.275
			C11.723,11.231,11.266,10.378,10.036,9.509z M4.475,12.767c0-1.034,1.315-1.943,2.815-1.943l0.04,0.001
			c0.325,0.003,0.644,0.052,0.943,0.145c0.104,0.07,0.203,0.138,0.299,0.202c0.693,0.474,1.152,0.786,1.28,1.287
			c0.029,0.126,0.046,0.252,0.046,0.375c0,1.288-0.961,1.943-2.859,1.943C5.602,14.777,4.475,13.894,4.475,12.767z M5.839,2.986
			C6.074,2.718,6.38,2.577,6.725,2.577l0.039,0.001C7.737,2.606,8.67,3.691,8.84,4.996c0.098,0.73-0.067,1.417-0.434,1.836
			C8.171,7.099,7.869,7.24,7.511,7.24c0,0,0,0-0.001,0H7.495C6.542,7.211,5.59,6.085,5.419,4.782
			C5.323,4.054,5.477,3.399,5.839,2.986z"/>
	</g>
	<path fill="#BCBCBC" d="M10.229,4.682c6.202-1.782,11.38,1.861,11.38,1.861L17.34,7.696L16.11,5.412
		c-1.156-0.212-2.475-0.279-3.875-0.043l2.905,5.904l12.557-3.616c0,0-4.554-7.151-18.137-4.841C9.481,2.83,9.41,2.849,9.332,2.862
		L8.013,0.184L4.104,0.628l1.594,3.259c-8.243,3.403-4.59,11.429-4.59,11.429l12.575-3.619L10.229,4.682z M4.511,11.158
		c0,0-1.211-2.673,2.314-4.966L8.7,10.029L4.511,11.158z"/>
</g>
</svg>
