<?xml version="1.0" encoding="utf-8"?>
<!-- Generator: Adobe Illustrator 16.0.0, SVG Export Plug-In . SVG Version: 6.00 Build 0)  -->
<!DOCTYPE svg PUBLIC "-//W3C//DTD SVG 1.1//EN" "http://www.w3.org/Graphics/SVG/1.1/DTD/svg11.dtd">
<svg version="1.1" xmlns="http://www.w3.org/2000/svg" xmlns:xlink="http://www.w3.org/1999/xlink" x="0px" y="0px"
	 width="15.499px" height="15.479px" viewBox="0 0 15.499 15.479" enable-background="new 0 0 15.499 15.479" xml:space="preserve">
<g id="Layer_2">
</g>
<g id="Layer_1">
	<g display="none">
		<g display="inline">
			<path fill="#FFFFFF" d="M10.619,1.147C9.65,0.707,8.622,0.481,7.56,0.481c-0.884,0-1.754,0.171-2.59,0.484
				c0.197,0.179,5.396,4.898,5.65,5.129C10.619,5.752,10.619,1.251,10.619,1.147L10.619,1.147z"/>
		</g>
		<g display="inline">
			<path fill="#FFFFFF" d="M3.741,14.236c0-0.289,0-6.037,0-6.378c-0.248,0.225-2.979,2.708-3.065,2.785
				C1.271,12.135,2.356,13.398,3.741,14.236L3.741,14.236z"/>
		</g>
		<g display="inline">
			<path fill="#FFFFFF" d="M0.142,7.901c0,0.635,0.096,1.286,0.27,1.928c0.201-0.185,6.446-5.86,6.575-5.978
				C6.862,3.74,4.264,1.381,4.179,1.304C1.689,2.582,0.142,5.103,0.142,7.901L0.142,7.901z"/>
		</g>
		<g display="inline">
			<path fill="#FFFFFF" d="M4.521,11.124c0,0.155,0,3.435,0,3.54c0.754,0.339,1.543,0.549,2.355,0.625h1.361
				c2.562-0.239,4.85-1.821,5.986-4.165C13.957,11.124,4.68,11.124,4.521,11.124L4.521,11.124z"/>
		</g>
		<g display="inline">
			<path fill="#FFFFFF" d="M11.4,1.572c0,0.294,0,8.613,0,8.772c0.152,0,3.039,0,3.158,0c0.276-0.792,0.421-1.613,0.421-2.443
				C14.979,5.322,13.608,2.916,11.4,1.572L11.4,1.572z"/>
		</g>
	</g>
	<g display="none">
		<path display="inline" fill="#FFFFFF" d="M12.468,7.534H2.786C1.248,7.534,0,8.782,0,10.32v2.241c0,1.539,1.248,2.786,2.786,2.786
			h9.682c1.539,0,2.789-1.247,2.789-2.786V10.32C15.257,8.782,14.007,7.534,12.468,7.534z M4.821,9.277h-0.9v4.473H3.052V9.277
			H2.151V8.517h2.67V9.277z M7.364,13.75H6.592v-0.423c-0.144,0.156-0.291,0.275-0.446,0.356c-0.154,0.084-0.303,0.122-0.447,0.122
			c-0.18,0-0.313-0.056-0.404-0.171c-0.09-0.116-0.135-0.288-0.135-0.52V9.889h0.771v2.963c0,0.09,0.017,0.155,0.048,0.198
			c0.034,0.041,0.086,0.06,0.159,0.06c0.055,0,0.128-0.025,0.215-0.08s0.167-0.123,0.239-0.208V9.889h0.772V13.75z M10.163,12.953
			c0,0.272-0.06,0.482-0.181,0.629c-0.121,0.146-0.297,0.217-0.523,0.217c-0.152,0-0.287-0.027-0.405-0.083
			c-0.119-0.056-0.229-0.142-0.329-0.263v0.297H7.943V8.517h0.781v1.686c0.104-0.116,0.214-0.207,0.329-0.269
			c0.12-0.062,0.238-0.091,0.357-0.091c0.247,0,0.43,0.08,0.56,0.246c0.129,0.163,0.192,0.403,0.192,0.721V12.953z M12.84,11.911
			h-1.475v0.729c0,0.202,0.023,0.344,0.073,0.423c0.054,0.078,0.14,0.116,0.263,0.116c0.129,0,0.218-0.033,0.268-0.1
			c0.052-0.066,0.078-0.213,0.078-0.439v-0.176h0.793v0.196c0,0.397-0.096,0.695-0.291,0.895c-0.19,0.2-0.481,0.301-0.863,0.301
			c-0.347,0-0.622-0.106-0.819-0.319c-0.197-0.21-0.298-0.503-0.298-0.876v-1.733c0-0.335,0.11-0.609,0.33-0.82
			c0.217-0.21,0.497-0.314,0.843-0.314c0.353,0,0.626,0.097,0.816,0.294c0.188,0.194,0.282,0.474,0.282,0.841V11.911z"/>
		<path display="inline" fill="#FFFFFF" d="M11.71,10.469c-0.124,0-0.212,0.035-0.266,0.106c-0.056,0.068-0.079,0.185-0.079,0.347
			v0.391h0.682v-0.391c0-0.162-0.028-0.278-0.082-0.347C11.913,10.504,11.826,10.469,11.71,10.469z"/>
		<path display="inline" fill="#FFFFFF" d="M9.045,10.455c-0.052,0-0.108,0.013-0.161,0.037c-0.055,0.025-0.108,0.065-0.159,0.119
			v2.405c0.062,0.062,0.123,0.11,0.182,0.139c0.061,0.024,0.122,0.04,0.187,0.04c0.097,0,0.164-0.027,0.209-0.084
			c0.043-0.053,0.065-0.142,0.065-0.264v-1.994c0-0.133-0.024-0.23-0.079-0.298C9.23,10.488,9.15,10.455,9.045,10.455z"/>
		<polygon display="inline" fill="#FFFFFF" points="4.053,6.191 5.032,6.191 5.032,3.8 6.171,0.426 5.177,0.426 4.571,2.73 
			4.509,2.73 3.875,0.426 2.89,0.426 4.053,3.907 		"/>
		<path display="inline" fill="#FFFFFF" d="M7.496,6.299c0.394,0,0.703-0.104,0.931-0.31c0.225-0.208,0.337-0.492,0.337-0.856V2.936
			c0-0.325-0.114-0.59-0.345-0.796C8.19,1.935,7.895,1.832,7.535,1.832c-0.395,0-0.709,0.097-0.943,0.292
			c-0.234,0.195-0.35,0.456-0.35,0.787v2.205c0,0.361,0.114,0.647,0.342,0.862C6.811,6.191,7.116,6.299,7.496,6.299z M7.136,2.879
			c0-0.093,0.034-0.167,0.098-0.225c0.068-0.058,0.154-0.086,0.261-0.086c0.115,0,0.207,0.028,0.278,0.086
			c0.07,0.058,0.105,0.132,0.105,0.225v2.317c0,0.114-0.035,0.203-0.104,0.27c-0.07,0.065-0.163,0.097-0.279,0.097
			c-0.116,0-0.204-0.031-0.267-0.096C7.167,5.402,7.136,5.313,7.136,5.196V2.879z"/>
		<path display="inline" fill="#FFFFFF" d="M10.075,6.253c0.162,0,0.33-0.045,0.503-0.135c0.174-0.091,0.343-0.224,0.501-0.396v0.47
			h0.869V1.939h-0.869v3.229c-0.08,0.092-0.171,0.168-0.267,0.229c-0.099,0.059-0.18,0.089-0.244,0.089
			c-0.08,0-0.142-0.022-0.177-0.068C10.357,5.373,10.337,5.3,10.337,5.2V1.939H9.469v3.555c0,0.253,0.051,0.443,0.15,0.568
			C9.724,6.189,9.875,6.253,10.075,6.253z"/>
	</g>
	<g display="none">
		<path display="inline" fill="#BCBCBC" d="M7.74,0.426c-4.125,0-7.47,3.344-7.47,7.47c0,3.059,1.84,5.688,4.471,6.841
			c-0.021-0.52-0.003-1.146,0.129-1.715c0.144-0.607,0.962-4.07,0.962-4.07S5.595,8.475,5.595,7.77c0-1.107,0.642-1.934,1.44-1.934
			c0.679,0,1.007,0.51,1.007,1.122c0,0.683-0.436,1.705-0.66,2.65c-0.188,0.793,0.396,1.439,1.179,1.439
			c1.415,0,2.369-1.818,2.369-3.971c0-1.637-1.104-2.863-3.109-2.863c-2.265,0-3.677,1.689-3.677,3.578
			c0,0.651,0.192,1.109,0.493,1.465c0.138,0.162,0.157,0.229,0.106,0.416c-0.036,0.138-0.117,0.469-0.152,0.6
			c-0.049,0.188-0.202,0.257-0.373,0.187C3.174,10.032,2.688,8.89,2.688,7.604c0-2.122,1.79-4.667,5.339-4.667
			c2.852,0,4.729,2.064,4.729,4.28c0,2.931-1.63,5.12-4.029,5.12c-0.808,0-1.565-0.436-1.826-0.932c0,0-0.434,1.723-0.525,2.054
			c-0.158,0.576-0.469,1.151-0.752,1.601c0.672,0.197,1.382,0.306,2.117,0.306c4.125,0,7.47-3.344,7.47-7.47
			S11.865,0.426,7.74,0.426z"/>
	</g>
	<path display="none" fill="#FFFFFF" d="M11.225,5.012H8.775V3.406c0-0.603,0.399-0.744,0.681-0.744s1.729,0,1.729,0V0.01L8.805,0
		C6.162,0,5.561,1.979,5.561,3.244v1.768H4.032v2.733h1.528c0,3.507,0,7.733,0,7.733h3.215c0,0,0-4.268,0-7.733h2.169L11.225,5.012z
		"/>
	<path fill="#FFFFFF" d="M7.8,0C3.548,0,0.101,3.448,0.101,7.699c0,4.252,3.447,7.698,7.699,7.698s7.699-3.446,7.699-7.698
		C15.499,3.448,12.052,0,7.8,0z M4.848,10.084c-1.339,0-2.423-1.083-2.423-2.422c0-1.339,1.084-2.423,2.423-2.423
		c1.338,0,2.423,1.084,2.423,2.423C7.271,9.001,6.186,10.084,4.848,10.084z M10.928,10.084c-1.339,0-2.423-1.083-2.423-2.422
		c0-1.339,1.084-2.423,2.423-2.423c1.338,0,2.423,1.084,2.423,2.423C13.351,9.001,12.266,10.084,10.928,10.084z"/>
</g>
</svg>
