<?xml version="1.0" encoding="utf-8"?>
<!-- Generator: Adobe Illustrator 16.0.0, SVG Export Plug-In . SVG Version: 6.00 Build 0)  -->
<!DOCTYPE svg PUBLIC "-//W3C//DTD SVG 1.1//EN" "http://www.w3.org/Graphics/SVG/1.1/DTD/svg11.dtd">
<svg version="1.1" xmlns="http://www.w3.org/2000/svg" xmlns:xlink="http://www.w3.org/1999/xlink" x="0px" y="0px"
	 width="12.929px" height="14.764px" viewBox="0 0 12.929 14.764" enable-background="new 0 0 12.929 14.764" xml:space="preserve">
<g id="Layer_2">
</g>
<g id="Layer_1">
	<path display="none" fill="#BCBCBC" d="M12.929,1.513c-0.621,0.318-1.297,0.547-2.01,0.673c0.71-0.481,1.233-1.208,1.453-2.053
		c-0.663,0.445-1.406,0.783-2.208,0.987C9.479,0.466,8.529,0.085,7.509,0.142C5.547,0.25,4.043,1.929,4.151,3.891
		c0.016,0.28,0.062,0.548,0.137,0.805C1.327,4.711-1.369,3.441-3.24,1.388C-3.517,1.93-3.659,2.549-3.623,3.201
		c0.068,1.232,0.755,2.285,1.744,2.87c-0.583,0.013-1.14-0.117-1.634-0.356c0.001,0.014,0.002,0.029,0.002,0.045
		c0.095,1.72,1.399,3.09,3.042,3.326c-0.293,0.097-0.605,0.158-0.929,0.176C-1.626,9.275-1.85,9.267-2.069,9.235
		c0.53,1.388,1.899,2.342,3.456,2.285c-1.164,1.02-2.664,1.672-4.329,1.764c-0.287,0.017-0.57,0.015-0.85-0.002
		c1.629,0.921,3.529,1.406,5.535,1.296c6.535-0.361,9.81-5.972,9.551-10.668c-0.009-0.154-0.02-0.307-0.036-0.458
		C11.924,2.912,12.492,2.252,12.929,1.513z"/>
	<path fill="#BCBCBC" d="M12.901,14.287L6.785,0.204C6.732,0.079,6.609,0,6.475,0l0,0C6.339,0,6.218,0.079,6.164,0.203L0.028,14.287
		c-0.046,0.105-0.036,0.227,0.027,0.322c0.062,0.096,0.169,0.154,0.283,0.154h5.443V11.77l-1.459-1.01l0.242-0.348l1.217,0.844
		V8.857h1.386v1.576l1.269-0.641l0.189,0.379l-1.458,0.734v1.162l2.329-1.174l0.189,0.377l-2.519,1.271v2.221h5.423
		c0.113,0,0.219-0.059,0.283-0.154C12.937,14.516,12.946,14.393,12.901,14.287z"/>
</g>
</svg>
