<?xml version="1.0" encoding="utf-8"?>
<!-- Generator: Adobe Illustrator 16.0.0, SVG Export Plug-In . SVG Version: 6.00 Build 0)  -->
<!DOCTYPE svg PUBLIC "-//W3C//DTD SVG 1.1//EN" "http://www.w3.org/Graphics/SVG/1.1/DTD/svg11.dtd">
<svg version="1.1" xmlns="http://www.w3.org/2000/svg" xmlns:xlink="http://www.w3.org/1999/xlink" x="0px" y="0px" width="17px"
	 height="15px" viewBox="0 0 17 15" enable-background="new 0 0 17 15" xml:space="preserve">
<g id="Layer_2">
</g>
<g id="Layer_1">
	<g display="none">
		<g display="inline">
			<path fill="#FFFFFF" d="M9.353-0.244C8.384-0.684,7.355-0.91,6.293-0.91c-0.884,0-1.754,0.171-2.59,0.484
				C3.9-0.247,9.099,4.473,9.353,4.703C9.353,4.361,9.353-0.139,9.353-0.244L9.353-0.244z"/>
		</g>
		<g display="inline">
			<path fill="#FFFFFF" d="M2.475,12.846c0-0.289,0-6.037,0-6.378C2.227,6.692-0.505,9.176-0.59,9.252
				C0.005,10.744,1.09,12.008,2.475,12.846L2.475,12.846z"/>
		</g>
		<g display="inline">
			<path fill="#FFFFFF" d="M-1.125,6.51c0,0.635,0.096,1.286,0.27,1.928c0.201-0.185,6.446-5.86,6.575-5.978
				c-0.124-0.112-2.722-2.47-2.807-2.547C0.422,1.191-1.125,3.712-1.125,6.51L-1.125,6.51z"/>
		</g>
		<g display="inline">
			<path fill="#FFFFFF" d="M3.254,9.733c0,0.155,0,3.435,0,3.54c0.754,0.339,1.543,0.549,2.355,0.625h1.361
				c2.562-0.239,4.85-1.821,5.986-4.165C12.69,9.733,3.414,9.733,3.254,9.733L3.254,9.733z"/>
		</g>
		<g display="inline">
			<path fill="#FFFFFF" d="M10.134,0.181c0,0.294,0,8.613,0,8.772c0.152,0,3.039,0,3.158,0c0.276-0.792,0.421-1.613,0.421-2.443
				C13.713,3.931,12.342,1.525,10.134,0.181L10.134,0.181z"/>
		</g>
	</g>
	<g display="none">
		<path display="inline" fill="#FFFFFF" d="M11.201,6.143H1.519c-1.538,0-2.786,1.249-2.786,2.787v2.241
			c0,1.539,1.248,2.786,2.786,2.786h9.682c1.539,0,2.789-1.247,2.789-2.786V8.93C13.99,7.392,12.74,6.143,11.201,6.143z
			 M3.554,7.887h-0.9v4.473H1.785V7.887H0.884V7.126h2.67V7.887z M6.097,12.359H5.325v-0.423c-0.144,0.156-0.291,0.275-0.446,0.356
			c-0.154,0.084-0.303,0.122-0.447,0.122c-0.18,0-0.313-0.056-0.404-0.171c-0.09-0.116-0.135-0.288-0.135-0.52V8.498h0.771v2.963
			c0,0.09,0.017,0.155,0.048,0.198c0.034,0.041,0.086,0.06,0.159,0.06c0.055,0,0.128-0.025,0.215-0.08s0.167-0.123,0.239-0.208
			V8.498h0.772V12.359z M8.896,11.562c0,0.272-0.06,0.482-0.181,0.629c-0.121,0.146-0.297,0.217-0.523,0.217
			c-0.152,0-0.287-0.027-0.405-0.083c-0.119-0.056-0.229-0.142-0.329-0.263v0.297H6.677V7.126h0.781v1.686
			c0.104-0.116,0.214-0.207,0.329-0.269c0.12-0.062,0.238-0.091,0.357-0.091c0.247,0,0.43,0.08,0.56,0.246
			c0.129,0.163,0.192,0.403,0.192,0.721V11.562z M11.573,10.521h-1.475v0.729c0,0.202,0.023,0.344,0.073,0.423
			c0.054,0.078,0.14,0.116,0.263,0.116c0.129,0,0.218-0.033,0.268-0.1c0.052-0.066,0.078-0.213,0.078-0.439v-0.176h0.793v0.196
			c0,0.397-0.096,0.695-0.291,0.895c-0.19,0.2-0.481,0.301-0.863,0.301c-0.347,0-0.622-0.106-0.819-0.319
			c-0.197-0.21-0.298-0.503-0.298-0.876V9.537c0-0.335,0.11-0.609,0.33-0.82c0.217-0.21,0.497-0.314,0.843-0.314
			c0.353,0,0.626,0.097,0.816,0.294c0.188,0.194,0.282,0.474,0.282,0.841V10.521z"/>
		<path display="inline" fill="#FFFFFF" d="M10.443,9.078c-0.124,0-0.212,0.035-0.266,0.106c-0.056,0.068-0.079,0.185-0.079,0.347
			v0.391h0.682V9.531c0-0.162-0.028-0.278-0.082-0.347C10.646,9.113,10.56,9.078,10.443,9.078z"/>
		<path display="inline" fill="#FFFFFF" d="M7.778,9.064c-0.052,0-0.108,0.013-0.161,0.037C7.562,9.127,7.509,9.167,7.458,9.221
			v2.405c0.062,0.062,0.123,0.11,0.182,0.139c0.061,0.024,0.122,0.04,0.187,0.04c0.097,0,0.164-0.027,0.209-0.084
			c0.043-0.053,0.065-0.142,0.065-0.264V9.463c0-0.133-0.024-0.23-0.079-0.298C7.964,9.098,7.884,9.064,7.778,9.064z"/>
		<polygon display="inline" fill="#FFFFFF" points="2.787,4.801 3.766,4.801 3.766,2.409 4.904,-0.965 3.911,-0.965 3.305,1.34 
			3.243,1.34 2.608,-0.965 1.623,-0.965 2.787,2.517 		"/>
		<path display="inline" fill="#FFFFFF" d="M6.229,4.909c0.394,0,0.703-0.104,0.931-0.31C7.385,4.39,7.497,4.106,7.497,3.743V1.545
			c0-0.325-0.114-0.59-0.345-0.796C6.923,0.544,6.628,0.441,6.269,0.441c-0.395,0-0.709,0.097-0.943,0.292
			c-0.234,0.195-0.35,0.456-0.35,0.787v2.205c0,0.361,0.114,0.647,0.342,0.862C5.544,4.801,5.849,4.909,6.229,4.909z M5.869,1.488
			c0-0.093,0.034-0.167,0.098-0.225c0.068-0.058,0.154-0.086,0.261-0.086c0.115,0,0.207,0.028,0.278,0.086
			c0.07,0.058,0.105,0.132,0.105,0.225v2.317c0,0.114-0.035,0.203-0.104,0.27C6.437,4.14,6.344,4.172,6.228,4.172
			c-0.116,0-0.204-0.031-0.267-0.096C5.9,4.011,5.869,3.922,5.869,3.806V1.488z"/>
		<path display="inline" fill="#FFFFFF" d="M8.809,4.863c0.162,0,0.33-0.045,0.503-0.135c0.174-0.091,0.343-0.224,0.501-0.396v0.47
			h0.869V0.548H9.812v3.229c-0.08,0.092-0.171,0.168-0.267,0.229c-0.099,0.059-0.18,0.089-0.244,0.089
			c-0.08,0-0.142-0.022-0.177-0.068C9.091,3.982,9.07,3.909,9.07,3.81V0.548H8.202v3.555c0,0.253,0.051,0.443,0.15,0.568
			C8.457,4.799,8.608,4.863,8.809,4.863z"/>
	</g>
	<g display="none">
		<path display="inline" fill="#BCBCBC" d="M6.474-0.965c-4.125,0-7.47,3.344-7.47,7.47c0,3.059,1.84,5.688,4.471,6.841
			c-0.021-0.52-0.003-1.146,0.129-1.715c0.144-0.607,0.962-4.07,0.962-4.07S4.328,7.084,4.328,6.379c0-1.107,0.642-1.934,1.44-1.934
			c0.679,0,1.007,0.51,1.007,1.122c0,0.683-0.436,1.705-0.66,2.65C5.929,9.01,6.513,9.656,7.295,9.656
			c1.415,0,2.369-1.818,2.369-3.971c0-1.637-1.104-2.863-3.109-2.863c-2.265,0-3.677,1.689-3.677,3.578
			c0,0.651,0.192,1.109,0.493,1.465c0.138,0.162,0.157,0.229,0.106,0.416C3.441,8.419,3.36,8.75,3.325,8.881
			C3.276,9.069,3.123,9.138,2.953,9.067C1.908,8.642,1.421,7.499,1.421,6.214c0-2.122,1.79-4.667,5.339-4.667
			c2.852,0,4.729,2.064,4.729,4.28c0,2.931-1.63,5.12-4.029,5.12c-0.808,0-1.565-0.436-1.826-0.932c0,0-0.434,1.723-0.525,2.054
			c-0.158,0.576-0.469,1.151-0.752,1.601c0.672,0.197,1.382,0.306,2.117,0.306c4.125,0,7.47-3.344,7.47-7.47
			S10.599-0.965,6.474-0.965z"/>
	</g>
	<path display="none" fill="#FFFFFF" d="M9.958,3.622H7.509V2.015c0-0.603,0.399-0.744,0.681-0.744s1.729,0,1.729,0v-2.652
		l-2.38-0.01c-2.643,0-3.244,1.979-3.244,3.244v1.768H2.766v2.733h1.528c0,3.507,0,7.733,0,7.733h3.215c0,0,0-4.268,0-7.733h2.169
		L9.958,3.622z"/>
	<path display="none" fill="#FFFFFF" d="M6.533-1.391c-4.252,0-7.699,3.448-7.699,7.699c0,4.252,3.447,7.698,7.699,7.698
		s7.699-3.446,7.699-7.698C14.232,2.057,10.785-1.391,6.533-1.391z M3.581,8.693c-1.339,0-2.423-1.083-2.423-2.422
		c0-1.339,1.084-2.423,2.423-2.423c1.338,0,2.423,1.084,2.423,2.423C6.004,7.61,4.919,8.693,3.581,8.693z M9.661,8.693
		c-1.339,0-2.423-1.083-2.423-2.422c0-1.339,1.084-2.423,2.423-2.423c1.338,0,2.423,1.084,2.423,2.423
		C12.084,7.61,10.999,8.693,9.661,8.693z"/>
	<path display="none" fill="#FFFFFF" d="M13.633,7.999c0.11-0.505,0.169-1.025,0.169-1.563c0-4.022-3.262-7.284-7.285-7.284
		c-0.424,0-0.84,0.037-1.246,0.106C4.62-1.152,3.85-1.391,3.023-1.391c-2.333,0-4.225,1.892-4.225,4.226
		c0,0.78,0.212,1.509,0.581,2.136c-0.097,0.474-0.147,0.963-0.147,1.465c0,4.024,3.261,7.285,7.285,7.285
		c0.456,0,0.901-0.042,1.333-0.122C8.445,13.918,9.126,14.1,9.848,14.1c2.334,0,4.225-1.89,4.225-4.225
		C14.072,9.202,13.914,8.565,13.633,7.999z M10.253,9.917c-0.337,0.479-0.835,0.855-1.48,1.125
		c-0.639,0.264-1.404,0.399-2.276,0.399c-1.046,0-1.923-0.184-2.608-0.547c-0.49-0.264-0.893-0.621-1.2-1.065
		C2.379,9.384,2.223,8.94,2.223,8.514c0-0.268,0.102-0.499,0.303-0.688c0.2-0.188,0.455-0.283,0.761-0.283
		c0.25,0,0.467,0.074,0.642,0.224C4.096,7.907,4.24,8.118,4.355,8.39c0.129,0.296,0.27,0.547,0.418,0.741
		C4.917,9.32,5.123,9.479,5.385,9.604c0.264,0.126,0.62,0.189,1.058,0.189c0.602,0,1.096-0.128,1.467-0.383
		c0.363-0.246,0.539-0.545,0.539-0.908c0-0.289-0.093-0.515-0.28-0.692C7.97,7.624,7.709,7.48,7.391,7.381
		C7.061,7.278,6.61,7.167,6.054,7.05C5.298,6.889,4.656,6.696,4.146,6.479C3.622,6.257,3.202,5.949,2.894,5.563
		c-0.312-0.392-0.471-0.882-0.471-1.46c0-0.55,0.167-1.047,0.495-1.474c0.325-0.425,0.801-0.756,1.414-0.982
		c0.604-0.224,1.324-0.337,2.138-0.337c0.65,0,1.222,0.076,1.7,0.224c0.479,0.149,0.884,0.352,1.202,0.6
		c0.32,0.25,0.56,0.518,0.709,0.796c0.151,0.281,0.228,0.561,0.228,0.831c0,0.261-0.101,0.497-0.299,0.704
		C9.81,4.672,9.558,4.777,9.261,4.777c-0.27,0-0.481-0.066-0.628-0.195c-0.136-0.121-0.277-0.309-0.435-0.58
		C8.017,3.658,7.797,3.386,7.545,3.194C7.299,3.007,6.89,2.913,6.328,2.913c-0.521,0-0.946,0.105-1.261,0.312
		C4.762,3.424,4.614,3.652,4.614,3.923c0,0.167,0.048,0.305,0.146,0.424c0.103,0.127,0.25,0.237,0.434,0.33
		C5.386,4.773,5.583,4.85,5.78,4.904c0.202,0.057,0.542,0.14,1.008,0.248C7.378,5.278,7.92,5.42,8.399,5.573
		c0.485,0.155,0.904,0.346,1.246,0.569c0.349,0.227,0.625,0.518,0.82,0.866c0.197,0.35,0.297,0.782,0.297,1.283
		C10.763,8.893,10.591,9.439,10.253,9.917z"/>
	<g display="none">
		<path display="inline" fill="#FFFFFF" d="M6.288,5.586c0,0,2.171-0.162,2.171-2.707c0-2.545-1.775-3.788-4.025-3.788H0.293H0.172
			h-3.14v14.225h3.14h0.122h4.141c0,0,4.518,0.143,4.518-4.199C8.952,9.117,9.149,5.586,6.288,5.586z M0.293,1.62h3.607h0.533
			c0,0,1.006,0,1.006,1.479c0,1.48-0.592,1.694-1.263,1.694H0.293V1.62z M4.225,10.789c-0.109,0.002-0.202,0-0.265,0H0.293V6.987
			h4.141c0,0,1.5-0.02,1.5,1.953C5.934,10.604,4.813,10.775,4.225,10.789z"/>
		<path display="inline" fill="#FFFFFF" d="M14.979,2.71c-5.471,0-5.466,5.465-5.466,5.465s-0.375,5.438,5.466,5.438
			c0,0,4.867,0.279,4.867-3.783h-2.504c0,0,0.084,1.531-2.28,1.531c0,0-2.503,0.166-2.503-2.477h7.37
			C19.93,8.885,20.736,2.71,14.979,2.71z M12.531,6.987c0,0,0.306-2.193,2.503-2.193c2.198,0,2.17,2.193,2.17,2.193H12.531z"/>
		<rect x="11.919" y="-0.071" display="inline" fill="#FFFFFF" width="5.868" height="1.752"/>
	</g>
	<g>
		<path fill="#BCBCBC" d="M16.453,6.098h-2.502V3.596c0-0.191-0.155-0.346-0.347-0.346h-0.713c-0.191,0-0.346,0.155-0.346,0.346
			v2.502h-2.502c-0.191,0-0.347,0.155-0.347,0.347v0.713c0,0.191,0.155,0.346,0.347,0.346h2.502v2.503
			c0,0.192,0.154,0.347,0.346,0.347h0.713c0.191,0,0.347-0.154,0.347-0.347V7.504h2.502c0.19,0,0.348-0.155,0.348-0.346V6.445
			C16.801,6.253,16.644,6.098,16.453,6.098z"/>
		<path fill="#BCBCBC" d="M8.042,8.292C7.517,7.919,7.037,7.374,7.029,7.206c0-0.307,0.026-0.452,0.713-0.987
			C8.629,5.523,9.118,4.61,9.118,3.646c0-0.875-0.268-1.651-0.723-2.197h0.354c0.073,0,0.144-0.023,0.203-0.065L9.937,0.67
			c0.122-0.087,0.174-0.244,0.126-0.387c-0.046-0.143-0.178-0.24-0.328-0.24H5.33c-0.48,0-0.971,0.085-1.452,0.251
			c-1.605,0.553-2.727,1.92-2.727,3.325c0,1.989,1.541,3.496,3.6,3.544c-0.04,0.158-0.06,0.312-0.06,0.464
			c0,0.307,0.077,0.598,0.237,0.877C4.91,8.505,4.892,8.505,4.873,8.505c-1.963,0-3.735,0.963-4.408,2.396
			C0.289,11.274,0.2,11.65,0.2,12.023c0,0.361,0.093,0.71,0.275,1.037c0.423,0.756,1.331,1.343,2.558,1.653
			c0.633,0.159,1.314,0.242,2.021,0.242c0.634,0,1.241-0.084,1.799-0.245c1.747-0.507,2.875-1.791,2.875-3.275
			C9.729,10.014,9.271,9.161,8.042,8.292z M2.481,11.55c0-1.034,1.315-1.943,2.815-1.943l0.04,0.001
			C5.661,9.61,5.98,9.659,6.279,9.752c0.104,0.07,0.203,0.138,0.299,0.202c0.693,0.474,1.152,0.786,1.28,1.287
			c0.029,0.126,0.046,0.252,0.046,0.375c0,1.288-0.961,1.943-2.859,1.943C3.607,13.56,2.481,12.677,2.481,11.55z M3.845,1.769
			C4.08,1.501,4.386,1.359,4.731,1.359L4.77,1.36c0.973,0.029,1.906,1.113,2.076,2.418c0.098,0.73-0.067,1.417-0.434,1.836
			C6.177,5.882,5.875,6.023,5.517,6.023c0,0,0,0-0.001,0H5.5C4.547,5.994,3.596,4.868,3.425,3.565
			C3.329,2.836,3.483,2.182,3.845,1.769z"/>
	</g>
</g>
</svg>
