<?xml version="1.0" encoding="utf-8"?>
<!-- Generator: Adobe Illustrator 16.0.0, SVG Export Plug-In . SVG Version: 6.00 Build 0)  -->
<!DOCTYPE svg PUBLIC "-//W3C//DTD SVG 1.1//EN" "http://www.w3.org/Graphics/SVG/1.1/DTD/svg11.dtd">
<svg version="1.1" xmlns="http://www.w3.org/2000/svg" xmlns:xlink="http://www.w3.org/1999/xlink" x="0px" y="0px" width="15px"
	 height="15px" viewBox="0 0 15 15" enable-background="new 0 0 15 15" xml:space="preserve">
<g id="Layer_2">
</g>
<g id="Layer_1">
	<g>
		<g>
			<path fill="#FFFFFF" d="M10.559,0.762C9.59,0.322,8.562,0.096,7.5,0.096c-0.884,0-1.754,0.171-2.59,0.484
				c0.197,0.179,5.396,4.898,5.65,5.129C10.559,5.367,10.559,0.867,10.559,0.762L10.559,0.762z"/>
		</g>
		<g>
			<path fill="#FFFFFF" d="M3.681,13.852c0-0.289,0-6.037,0-6.378c-0.248,0.225-2.979,2.708-3.065,2.785
				C1.211,11.75,2.296,13.014,3.681,13.852L3.681,13.852z"/>
		</g>
		<g>
			<path fill="#FFFFFF" d="M0.082,7.516c0,0.635,0.096,1.286,0.27,1.928c0.201-0.185,6.446-5.86,6.575-5.978
				c-0.124-0.112-2.722-2.47-2.807-2.547C1.629,2.197,0.082,4.718,0.082,7.516L0.082,7.516z"/>
		</g>
		<g>
			<path fill="#FFFFFF" d="M4.461,10.739c0,0.155,0,3.435,0,3.54c0.754,0.339,1.543,0.549,2.355,0.625h1.361
				c2.562-0.239,4.85-1.821,5.986-4.165C13.897,10.739,4.62,10.739,4.461,10.739L4.461,10.739z"/>
		</g>
		<g>
			<path fill="#FFFFFF" d="M11.34,1.187c0,0.294,0,8.613,0,8.772c0.152,0,3.039,0,3.158,0c0.276-0.792,0.421-1.613,0.421-2.443
				C14.919,4.937,13.548,2.531,11.34,1.187L11.34,1.187z"/>
		</g>
	</g>
	<g display="none">
		<path display="inline" fill="#231F20" d="M12.182,7.163H2.675c-1.51,0-2.735,1.226-2.735,2.736v2.2
			c0,1.512,1.225,2.736,2.735,2.736h9.507c1.511,0,2.738-1.225,2.738-2.736v-2.2C14.92,8.388,13.693,7.163,12.182,7.163z
			 M4.673,8.874H3.79v4.393H2.936V8.874H2.052V8.128h2.622V8.874z M7.17,13.267H6.412v-0.415c-0.141,0.152-0.286,0.27-0.438,0.35
			c-0.151,0.082-0.297,0.12-0.439,0.12c-0.177,0-0.307-0.055-0.396-0.168c-0.088-0.114-0.133-0.282-0.133-0.51V9.475h0.757v2.909
			c0,0.089,0.017,0.153,0.047,0.194c0.033,0.041,0.085,0.06,0.156,0.06c0.054,0,0.125-0.025,0.211-0.079s0.165-0.121,0.234-0.204
			v-2.88H7.17V13.267z M9.919,12.483c0,0.269-0.06,0.475-0.179,0.617c-0.118,0.144-0.291,0.214-0.514,0.214
			c-0.149,0-0.282-0.027-0.397-0.082c-0.116-0.054-0.225-0.139-0.323-0.257v0.291H7.739V8.128h0.767v1.654
			C8.609,9.668,8.717,9.579,8.83,9.52C8.947,9.459,9.063,9.43,9.18,9.43c0.242,0,0.423,0.079,0.549,0.241
			c0.127,0.161,0.19,0.397,0.19,0.708V12.483z M12.546,11.461h-1.447v0.716c0,0.199,0.023,0.338,0.072,0.415
			c0.053,0.077,0.137,0.114,0.258,0.114c0.126,0,0.213-0.032,0.263-0.098s0.076-0.209,0.076-0.432v-0.173h0.778v0.193
			c0,0.39-0.094,0.682-0.285,0.879c-0.187,0.196-0.473,0.295-0.848,0.295c-0.341,0-0.61-0.104-0.804-0.313
			c-0.194-0.206-0.293-0.494-0.293-0.86v-1.702c0-0.328,0.108-0.599,0.323-0.806c0.213-0.206,0.488-0.309,0.828-0.309
			c0.347,0,0.614,0.095,0.802,0.288c0.185,0.191,0.276,0.466,0.276,0.826V11.461z"/>
		<path display="inline" fill="#231F20" d="M11.437,10.045c-0.121,0-0.208,0.034-0.26,0.104c-0.055,0.066-0.078,0.181-0.078,0.34
			v0.383h0.669v-0.383c0-0.159-0.028-0.273-0.08-0.34C11.636,10.079,11.551,10.045,11.437,10.045z"/>
		<path display="inline" fill="#231F20" d="M8.822,10.031c-0.052,0-0.106,0.013-0.159,0.036c-0.054,0.024-0.106,0.064-0.156,0.117
			v2.361c0.061,0.061,0.12,0.108,0.179,0.136c0.059,0.024,0.12,0.04,0.183,0.04c0.095,0,0.161-0.027,0.205-0.082
			c0.043-0.053,0.064-0.14,0.064-0.26v-1.958c0-0.13-0.023-0.227-0.078-0.292C9.003,10.064,8.924,10.031,8.822,10.031z"/>
		<polygon display="inline" fill="#231F20" points="3.92,5.845 4.881,5.845 4.881,3.497 5.999,0.184 5.023,0.184 4.429,2.447 
			4.368,2.447 3.744,0.184 2.777,0.184 3.92,3.602 		"/>
		<path display="inline" fill="#231F20" d="M7.3,5.951c0.387,0,0.691-0.102,0.915-0.305c0.22-0.205,0.33-0.483,0.33-0.84V2.648
			c0-0.319-0.112-0.58-0.338-0.782C7.981,1.665,7.692,1.563,7.339,1.563c-0.388,0-0.697,0.096-0.927,0.288
			C6.183,2.043,6.068,2.299,6.068,2.624v2.166c0,0.354,0.112,0.636,0.335,0.846C6.627,5.845,6.927,5.951,7.3,5.951z M6.946,2.592
			c0-0.091,0.033-0.165,0.096-0.221c0.067-0.057,0.151-0.084,0.256-0.084c0.113,0,0.203,0.028,0.273,0.084
			c0.069,0.057,0.104,0.13,0.104,0.221v2.275c0,0.111-0.034,0.2-0.103,0.264c-0.068,0.064-0.16,0.096-0.274,0.096
			c-0.113,0-0.2-0.031-0.262-0.095c-0.06-0.063-0.09-0.151-0.09-0.265V2.592z"/>
		<path display="inline" fill="#231F20" d="M9.833,5.906c0.159,0,0.324-0.045,0.494-0.133c0.171-0.089,0.336-0.22,0.492-0.39v0.461
			h0.853V1.669h-0.853v3.17c-0.08,0.09-0.169,0.166-0.263,0.225c-0.097,0.058-0.176,0.087-0.239,0.087
			c-0.079,0-0.14-0.021-0.174-0.067c-0.033-0.044-0.054-0.115-0.054-0.213V1.669H9.237V5.16c0,0.249,0.05,0.435,0.148,0.558
			C9.488,5.843,9.635,5.906,9.833,5.906z"/>
	</g>
</g>
</svg>
