<?xml version="1.0" encoding="utf-8"?>
<!-- Generator: Adobe Illustrator 16.0.0, SVG Export Plug-In . SVG Version: 6.00 Build 0)  -->
<!DOCTYPE svg PUBLIC "-//W3C//DTD SVG 1.1//EN" "http://www.w3.org/Graphics/SVG/1.1/DTD/svg11.dtd">
<svg version="1.1" xmlns="http://www.w3.org/2000/svg" xmlns:xlink="http://www.w3.org/1999/xlink" x="0px" y="0px" width="15px"
	 height="15px" viewBox="0 0 15 15" enable-background="new 0 0 15 15" xml:space="preserve">
<g id="Layer_2">
</g>
<g id="Layer_1">
	<g>
		<path fill="#BCBCBC" d="M7.921,6.951V6.934C7.917,6.939,7.914,6.945,7.91,6.951H7.921z"/>
		<path fill="#BCBCBC" d="M13.792,0.069H1.207c-0.603,0-1.091,0.477-1.091,1.065v12.733c0,0.588,0.489,1.064,1.091,1.064h12.585
			c0.604,0,1.092-0.477,1.092-1.064V1.134C14.884,0.546,14.396,0.069,13.792,0.069z M4.592,12.511h-2.23V5.8h2.23V12.511z
			 M3.477,4.883H3.462c-0.749,0-1.232-0.516-1.232-1.159c0-0.658,0.499-1.16,1.262-1.16s1.232,0.501,1.248,1.16
			C4.739,4.368,4.254,4.883,3.477,4.883z M12.636,12.511h-2.23V8.92c0-0.902-0.322-1.517-1.13-1.517
			c-0.616,0-0.983,0.415-1.145,0.815C8.072,8.362,8.057,8.562,8.057,8.763v3.748h-2.23c0,0,0.029-6.082,0-6.711h2.23v0.95
			c0.296-0.457,0.827-1.108,2.011-1.108c1.467,0,2.567,0.96,2.567,3.021V12.511z"/>
	</g>
</g>
</svg>
