<?xml version="1.0" encoding="utf-8"?>
<!-- Generator: Adobe Illustrator 16.0.0, SVG Export Plug-In . SVG Version: 6.00 Build 0)  -->
<!DOCTYPE svg PUBLIC "-//W3C//DTD SVG 1.1//EN" "http://www.w3.org/Graphics/SVG/1.1/DTD/svg11.dtd">
<svg version="1.1" xmlns="http://www.w3.org/2000/svg" xmlns:xlink="http://www.w3.org/1999/xlink" x="0px" y="0px"
	 width="14.603px" height="14.764px" viewBox="0 0 14.603 14.764" enable-background="new 0 0 14.603 14.764" xml:space="preserve">
<g id="Layer_2">
</g>
<g id="Layer_1">
	<path display="none" fill="#BCBCBC" d="M14.603,1.513c-0.621,0.318-1.297,0.547-2.01,0.673c0.71-0.481,1.233-1.208,1.453-2.053
		c-0.663,0.445-1.406,0.783-2.208,0.987c-0.686-0.655-1.635-1.036-2.655-0.979C7.221,0.25,5.717,1.929,5.826,3.891
		c0.016,0.28,0.062,0.548,0.137,0.805C3.001,4.711,0.305,3.441-1.566,1.388C-1.842,1.93-1.984,2.549-1.948,3.201
		c0.068,1.232,0.755,2.285,1.744,2.87c-0.583,0.013-1.14-0.117-1.634-0.356c0.001,0.014,0.002,0.029,0.002,0.045
		c0.095,1.72,1.399,3.09,3.042,3.326C0.913,9.184,0.601,9.245,0.277,9.263C0.048,9.275-0.176,9.267-0.395,9.235
		c0.53,1.388,1.899,2.342,3.456,2.285c-1.164,1.02-2.664,1.672-4.329,1.764c-0.287,0.017-0.57,0.015-0.85-0.002
		c1.629,0.921,3.529,1.406,5.535,1.296c6.535-0.361,9.81-5.972,9.551-10.668c-0.009-0.154-0.02-0.307-0.036-0.458
		C13.598,2.912,14.167,2.252,14.603,1.513z"/>
	<path fill="#FFFFFF" d="M0.092,7.837c1.801,0,3.495,0.704,4.767,1.984c1.275,1.278,1.977,2.983,1.977,4.798h2.775
		c0-5.271-4.27-9.558-9.519-9.558V7.837z M0.096,2.917c6.419,0,11.643,5.251,11.643,11.705h2.775
		c0-7.985-6.468-14.481-14.418-14.481V2.917z M3.935,12.684c0,1.062-0.861,1.923-1.923,1.923s-1.922-0.86-1.922-1.923
		c0-1.062,0.861-1.923,1.922-1.923S3.935,11.622,3.935,12.684z"/>
</g>
</svg>
