<?xml version="1.0" encoding="utf-8"?>
<!-- Generator: Adobe Illustrator 16.0.0, SVG Export Plug-In . SVG Version: 6.00 Build 0)  -->
<!DOCTYPE svg PUBLIC "-//W3C//DTD SVG 1.1//EN" "http://www.w3.org/Graphics/SVG/1.1/DTD/svg11.dtd">
<svg version="1.1" xmlns="http://www.w3.org/2000/svg" xmlns:xlink="http://www.w3.org/1999/xlink" x="0px" y="0px"
	 width="16.985px" height="14.862px" viewBox="0 0 16.985 14.862" enable-background="new 0 0 16.985 14.862" xml:space="preserve">
<g id="Layer_2">
</g>
<g id="Layer_1">
	<path fill="#FFFFFF" d="M16.883,1.56c-0.621,0.318-1.297,0.547-2.01,0.673c0.71-0.481,1.233-1.208,1.453-2.053
		c-0.663,0.445-1.406,0.783-2.208,0.987c-0.686-0.655-1.635-1.036-2.655-0.979C9.501,0.297,7.998,1.976,8.106,3.938
		c0.016,0.28,0.062,0.548,0.137,0.805C5.282,4.758,2.585,3.488,0.714,1.435C0.438,1.977,0.296,2.596,0.332,3.248
		C0.4,4.48,1.087,5.533,2.076,6.118c-0.583,0.013-1.14-0.117-1.634-0.356c0.001,0.014,0.002,0.029,0.002,0.045
		c0.095,1.72,1.399,3.09,3.042,3.326C3.193,9.23,2.881,9.292,2.558,9.31C2.329,9.322,2.104,9.313,1.885,9.282
		c0.53,1.388,1.899,2.342,3.456,2.285c-1.164,1.02-2.664,1.672-4.329,1.764c-0.287,0.017-0.57,0.015-0.85-0.002
		c1.629,0.921,3.529,1.406,5.535,1.296c6.535-0.361,9.81-5.972,9.551-10.668c-0.009-0.154-0.02-0.307-0.036-0.458
		C15.878,2.958,16.447,2.299,16.883,1.56z"/>
</g>
</svg>
