<?xml version="1.0" encoding="utf-8"?>
<!-- Generator: Adobe Illustrator 16.0.0, SVG Export Plug-In . SVG Version: 6.00 Build 0)  -->
<!DOCTYPE svg PUBLIC "-//W3C//DTD SVG 1.1//EN" "http://www.w3.org/Graphics/SVG/1.1/DTD/svg11.dtd">
<svg version="1.1" xmlns="http://www.w3.org/2000/svg" xmlns:xlink="http://www.w3.org/1999/xlink" x="0px" y="0px"
	 width="16.985px" height="14.862px" viewBox="0 0 16.985 14.862" enable-background="new 0 0 16.985 14.862" xml:space="preserve">
<g id="Layer_2">
</g>
<g id="Layer_1">
	<path fill="#BCBCBC" d="M0,4.033l0.689,0.905c0,0,1.423-1.122,1.897-0.562c0.474,0.562,2.285,7.331,2.888,8.579
		c0.528,1.097,1.983,2.544,3.579,1.509c1.594-1.033,6.897-5.561,7.846-10.906c0.948-5.345-6.382-4.226-7.157,0.43
		c1.939-1.165,2.976,0.475,1.983,2.329C10.734,8.169,9.83,9.378,9.355,9.378c-0.473,0-0.838-1.239-1.38-3.407
		C7.414,3.73,7.417-0.306,5.087,0.151C2.888,0.583,0,4.033,0,4.033z"/>
</g>
</svg>
