<?xml version="1.0" encoding="utf-8"?>
<!-- Generator: Adobe Illustrator 16.0.0, SVG Export Plug-In . SVG Version: 6.00 Build 0)  -->
<!DOCTYPE svg PUBLIC "-//W3C//DTD SVG 1.1//EN" "http://www.w3.org/Graphics/SVG/1.1/DTD/svg11.dtd">
<svg version="1.1" xmlns="http://www.w3.org/2000/svg" xmlns:xlink="http://www.w3.org/1999/xlink" x="0px" y="0px"
	 width="15.257px" height="14.922px" viewBox="0 0 15.257 14.922" enable-background="new 0 0 15.257 14.922" xml:space="preserve">
<g id="Layer_2">
</g>
<g id="Layer_1">
	<g display="none">
		<g display="inline">
			<path fill="#FFFFFF" d="M10.619,0.721C9.65,0.281,8.622,0.055,7.56,0.055c-0.884,0-1.754,0.171-2.59,0.484
				c0.197,0.179,5.396,4.898,5.65,5.129C10.619,5.326,10.619,0.826,10.619,0.721L10.619,0.721z"/>
		</g>
		<g display="inline">
			<path fill="#FFFFFF" d="M3.741,13.811c0-0.289,0-6.037,0-6.378c-0.248,0.225-2.979,2.708-3.065,2.785
				C1.271,11.709,2.356,12.973,3.741,13.811L3.741,13.811z"/>
		</g>
		<g display="inline">
			<path fill="#FFFFFF" d="M0.142,7.475c0,0.635,0.096,1.286,0.27,1.928c0.201-0.185,6.446-5.86,6.575-5.978
				c-0.124-0.112-2.722-2.47-2.807-2.547C1.689,2.156,0.142,4.677,0.142,7.475L0.142,7.475z"/>
		</g>
		<g display="inline">
			<path fill="#FFFFFF" d="M4.521,10.698c0,0.155,0,3.435,0,3.54c0.754,0.339,1.543,0.549,2.355,0.625h1.361
				c2.562-0.239,4.85-1.821,5.986-4.165C13.957,10.698,4.68,10.698,4.521,10.698L4.521,10.698z"/>
		</g>
		<g display="inline">
			<path fill="#FFFFFF" d="M11.4,1.146c0,0.294,0,8.613,0,8.772c0.152,0,3.039,0,3.158,0c0.276-0.792,0.421-1.613,0.421-2.443
				C14.979,4.896,13.608,2.49,11.4,1.146L11.4,1.146z"/>
		</g>
	</g>
	<g>
		<path fill="#BCBCBC" d="M12.468,7.108H2.786C1.248,7.108,0,8.356,0,9.895v2.241c0,1.539,1.248,2.786,2.786,2.786h9.682
			c1.539,0,2.789-1.247,2.789-2.786V9.895C15.257,8.356,14.007,7.108,12.468,7.108z M4.821,8.852h-0.9v4.473H3.052V8.852H2.151
			V8.091h2.67V8.852z M7.364,13.324H6.592v-0.423c-0.144,0.156-0.291,0.275-0.446,0.356c-0.154,0.084-0.303,0.122-0.447,0.122
			c-0.18,0-0.313-0.056-0.404-0.171c-0.09-0.116-0.135-0.288-0.135-0.52V9.463h0.771v2.963c0,0.09,0.017,0.155,0.048,0.198
			c0.034,0.041,0.086,0.06,0.159,0.06c0.055,0,0.128-0.025,0.215-0.08s0.167-0.123,0.239-0.208V9.463h0.772V13.324z M10.163,12.527
			c0,0.272-0.06,0.482-0.181,0.629c-0.121,0.146-0.297,0.217-0.523,0.217c-0.152,0-0.287-0.027-0.405-0.083
			c-0.119-0.056-0.229-0.142-0.329-0.263v0.297H7.943V8.091h0.781v1.686C8.829,9.66,8.938,9.569,9.054,9.508
			c0.12-0.062,0.238-0.091,0.357-0.091c0.247,0,0.43,0.08,0.56,0.246c0.129,0.163,0.192,0.403,0.192,0.721V12.527z M12.84,11.485
			h-1.475v0.729c0,0.202,0.023,0.344,0.073,0.423c0.054,0.078,0.14,0.116,0.263,0.116c0.129,0,0.218-0.033,0.268-0.1
			c0.052-0.066,0.078-0.213,0.078-0.439v-0.176h0.793v0.196c0,0.397-0.096,0.695-0.291,0.895c-0.19,0.2-0.481,0.301-0.863,0.301
			c-0.347,0-0.622-0.106-0.819-0.319c-0.197-0.21-0.298-0.503-0.298-0.876v-1.733c0-0.335,0.11-0.609,0.33-0.82
			c0.217-0.21,0.497-0.314,0.843-0.314c0.353,0,0.626,0.097,0.816,0.294c0.188,0.194,0.282,0.474,0.282,0.841V11.485z"/>
		<path fill="#BCBCBC" d="M11.71,10.043c-0.124,0-0.212,0.035-0.266,0.106c-0.056,0.068-0.079,0.185-0.079,0.347v0.391h0.682v-0.391
			c0-0.162-0.028-0.278-0.082-0.347C11.913,10.078,11.826,10.043,11.71,10.043z"/>
		<path fill="#BCBCBC" d="M9.045,10.029c-0.052,0-0.108,0.013-0.161,0.037c-0.055,0.025-0.108,0.065-0.159,0.119v2.405
			c0.062,0.062,0.123,0.11,0.182,0.139c0.061,0.024,0.122,0.04,0.187,0.04c0.097,0,0.164-0.027,0.209-0.084
			c0.043-0.053,0.065-0.142,0.065-0.264v-1.994c0-0.133-0.024-0.23-0.079-0.298C9.23,10.062,9.15,10.029,9.045,10.029z"/>
		<polygon fill="#BCBCBC" points="4.053,5.766 5.032,5.766 5.032,3.374 6.171,0 5.177,0 4.571,2.305 4.509,2.305 3.875,0 2.89,0 
			4.053,3.481 		"/>
		<path fill="#BCBCBC" d="M7.496,5.874c0.394,0,0.703-0.104,0.931-0.31c0.225-0.208,0.337-0.492,0.337-0.856V2.51
			c0-0.325-0.114-0.59-0.345-0.796C8.19,1.509,7.895,1.406,7.535,1.406c-0.395,0-0.709,0.097-0.943,0.292
			c-0.234,0.195-0.35,0.456-0.35,0.787V4.69c0,0.361,0.114,0.647,0.342,0.862C6.811,5.766,7.116,5.874,7.496,5.874z M7.136,2.453
			c0-0.093,0.034-0.167,0.098-0.225C7.301,2.17,7.388,2.142,7.494,2.142c0.115,0,0.207,0.028,0.278,0.086
			c0.07,0.058,0.105,0.132,0.105,0.225v2.317c0,0.114-0.035,0.203-0.104,0.27c-0.07,0.065-0.163,0.097-0.279,0.097
			c-0.116,0-0.204-0.031-0.267-0.096C7.167,4.976,7.136,4.887,7.136,4.771V2.453z"/>
		<path fill="#BCBCBC" d="M10.075,5.828c0.162,0,0.33-0.045,0.503-0.135c0.174-0.091,0.343-0.224,0.501-0.396v0.47h0.869V1.513
			h-0.869v3.229c-0.08,0.092-0.171,0.168-0.267,0.229c-0.099,0.059-0.18,0.089-0.244,0.089c-0.08,0-0.142-0.022-0.177-0.068
			c-0.034-0.045-0.055-0.118-0.055-0.217V1.513H9.469v3.555c0,0.253,0.051,0.443,0.15,0.568C9.724,5.764,9.875,5.828,10.075,5.828z"
			/>
	</g>
</g>
</svg>
